<svg width="44" height="44" viewBox="0 0 44 44" fill="none" xmlns="http://www.w3.org/2000/svg">
<mask id="mask0_136_71" style="mask-type:luminance" maskUnits="userSpaceOnUse" x="0" y="0" width="44" height="44">
<path d="M44 0H0V44H44V0Z" fill="white"/>
</mask>
<g mask="url(#mask0_136_71)">
<path d="M5.3125 7.66622C15.5395 -4.23573 34.5035 -1.88724 41.5905 12.0167C36.5995 12.0194 28.7865 12.0139 24.5545 12.0167C21.4855 12.0167 19.5025 11.9479 17.3575 13.0781C14.8355 14.4064 12.9305 16.8676 12.2675 19.7606L5.3125 7.66622Z" fill="#F44336"/>
<path d="M14.6816 22.0019C14.6816 26.0361 17.9626 29.3169 21.9936 29.3169C26.0256 29.3169 29.3066 26.0361 29.3066 22.0019C29.3066 17.9677 26.0256 14.687 21.9936 14.687C17.9596 14.6842 14.6816 17.9677 14.6816 22.0019Z" fill="#2196F3"/>
<path d="M24.829 31.5771C20.726 32.7954 15.921 31.4451 13.293 26.9021C11.285 23.4372 5.978 14.1945 3.569 9.98975C-4.879 22.9367 2.39999 40.5778 17.734 43.589L24.829 31.5771Z" fill="#4CAF50"/>
<path d="M28.7831 14.6843C32.2011 17.8633 32.9471 23.0113 30.6311 27.0015C28.8881 30.01 23.3191 39.4067 20.6211 43.9551C36.4201 44.9286 47.9371 29.4462 42.7341 14.6816L28.7831 14.6843Z" fill="#FFC107"/>
</g>
</svg>
