<svg width="44" height="44" viewBox="0 0 44 44" fill="none" xmlns="http://www.w3.org/2000/svg">
<mask id="mask0_136_95" style="mask-type:luminance" maskUnits="userSpaceOnUse" x="0" y="0" width="44" height="44">
<path d="M44 0H0V44H44V0Z" fill="white"/>
</mask>
<g mask="url(#mask0_136_95)">
<path d="M27.0642 43.4345C32.7902 42.1102 37.6592 38.5507 40.7052 33.7248C41.0762 33.1359 40.4212 32.4317 39.8072 32.7609C37.4662 34.0169 34.6872 34.7446 31.7072 34.7446C23.4452 34.7446 16.7322 29.1563 16.5942 22.2185C16.5472 19.8741 17.9462 17.8015 19.9762 16.9351L19.9752 16.9341C18.7752 17.3543 17.4252 17.528 16.3812 18.2516C12.4222 20.9961 10.0182 26.0744 10.4012 30.6397C10.7732 35.0698 13.4822 40.2611 18.1682 42.5804C20.6182 43.7932 23.7792 43.5958 27.0642 43.4345Z" fill="url(#paint0_linear_136_95)"/>
<path d="M26.8649 28.6528C28.3489 29.1943 29.9859 29.4945 31.7059 29.4945C38.4469 29.4945 43.9109 24.8872 43.9109 19.2039C43.9109 7.93682 33.4019 0.10172 22.2909 0.00091965C10.1769 -0.10918 0.197891 9.68062 0.0878906 21.7949C0.0878906 21.7949 3.11889 12.4346 13.9449 12.4346C21.2709 12.4346 26.3929 16.7831 27.2349 20.0703C27.4599 20.6707 27.5829 21.3207 27.5829 21.9998C27.5829 23.4238 27.0419 24.7213 26.1539 25.6976C25.2729 26.6649 25.6359 28.2044 26.8649 28.6528Z" fill="url(#paint1_linear_136_95)"/>
<path d="M27.2348 20.07C26.3938 16.7828 23.5918 10.4482 14.4918 10.4482C0.496818 10.4482 0.0888324 21.7946 0.0888324 21.7946C-0.0231676 34.0389 9.86883 43.9996 22.0878 43.9996C23.7998 43.9996 25.4648 43.804 27.0648 43.4342C9.31682 44.3057 7.49482 21.3026 19.9748 16.9338L19.9768 16.9348C20.6078 16.6655 21.2988 16.5114 22.0278 16.5036C24.4098 16.4782 26.4468 17.9689 27.2348 20.07Z" fill="url(#paint2_linear_136_95)"/>
</g>
<defs>
<linearGradient id="paint0_linear_136_95" x1="10.3622" y1="30.2447" x2="40.8132" y2="30.2447" gradientUnits="userSpaceOnUse">
<stop stop-color="#00376F"/>
<stop offset="1" stop-color="#004E99"/>
</linearGradient>
<linearGradient id="paint1_linear_136_95" x1="9.08489" y1="7.75852" x2="34.5609" y2="22.8289" gradientUnits="userSpaceOnUse">
<stop stop-color="#00C2DD"/>
<stop offset="1" stop-color="#00D34F"/>
</linearGradient>
<linearGradient id="paint2_linear_136_95" x1="11.4718" y1="12.1818" x2="18.3338" y2="43.6683" gradientUnits="userSpaceOnUse">
<stop offset="0.0016" stop-color="#006393"/>
<stop offset="0.4" stop-color="#0086DE"/>
<stop offset="1" stop-color="#006393"/>
</linearGradient>
</defs>
</svg>
