<svg width="44" height="44" viewBox="0 0 44 44" fill="none" xmlns="http://www.w3.org/2000/svg">
<mask id="mask0_136_102" style="mask-type:luminance" maskUnits="userSpaceOnUse" x="0" y="0" width="44" height="44">
<path d="M44 0H0V44H44V0Z" fill="white"/>
</mask>
<g mask="url(#mask0_136_102)">
<g opacity="0.08">
<path d="M22.0001 43.9998C33.5531 43.9998 42.9181 34.6348 42.9181 23.0818C42.9181 11.5298 33.5531 2.16406 22.0001 2.16406C10.4471 2.16406 1.08203 11.5298 1.08203 23.0818C1.08203 34.6348 10.4471 43.9998 22.0001 43.9998Z" fill="black"/>
</g>
<path d="M22.0005 43.2777C33.9515 43.2777 43.6395 33.5897 43.6395 21.6387C43.6395 9.68769 33.9515 0 22.0005 0C10.0495 0 0.361328 9.68769 0.361328 21.6387C0.361328 33.5897 10.0495 43.2777 22.0005 43.2777Z" fill="url(#paint0_linear_136_102)"/>
<g opacity="0.08">
<path d="M22.0005 0C10.0495 0 0.361328 9.6877 0.361328 21.6397C0.361328 33.5907 10.0495 43.2787 22.0005 43.2787C33.9515 43.2787 43.6395 33.5907 43.6395 21.6397C43.6395 9.6877 33.9515 0 22.0005 0ZM22.0005 41.8357C10.8645 41.8357 1.80392 32.7757 1.80392 21.6397C1.80392 10.5027 10.8645 1.4427 22.0005 1.4427C33.1365 1.4427 42.1975 10.5027 42.1975 21.6397C42.1975 32.7757 33.1365 41.8357 22.0005 41.8357Z" fill="url(#paint1_linear_136_102)"/>
</g>
<g opacity="0.16">
<path d="M22.0005 0C10.0495 0 0.361328 9.6877 0.361328 21.6397C0.361328 33.5907 10.0495 43.2787 22.0005 43.2787C33.9515 43.2787 43.6395 33.5907 43.6395 21.6397C43.6395 9.6877 33.9515 0 22.0005 0ZM22.0005 42.5577C10.4485 42.5577 1.08253 33.1917 1.08253 21.6397C1.08253 10.0867 10.4485 0.721298 22.0005 0.721298C33.5535 0.721298 42.9185 10.0867 42.9185 21.6397C42.9185 33.1917 33.5535 42.5577 22.0005 42.5577Z" fill="black"/>
</g>
<path d="M22.0006 41.1148C32.7566 41.1148 41.4756 32.3948 41.4756 21.6388C41.4756 10.8838 32.7566 2.16406 22.0006 2.16406C11.2446 2.16406 2.52539 10.8838 2.52539 21.6388C2.52539 32.3948 11.2446 41.1148 22.0006 41.1148Z" fill="url(#paint2_linear_136_102)"/>
<g opacity="0.16">
<path d="M22.0011 2.16406C11.2451 2.16406 2.52539 10.8828 2.52539 21.6398C2.52539 32.3958 11.2451 41.1148 22.0011 41.1148C32.7571 41.1148 41.4761 32.3958 41.4761 21.6398C41.4761 10.8828 32.7571 2.16406 22.0011 2.16406ZM22.0011 40.3938C11.6431 40.3938 3.24679 31.9968 3.24679 21.6398C3.24679 11.2818 11.6431 2.88536 22.0011 2.88536C32.3581 2.88536 40.7551 11.2818 40.7551 21.6398C40.7551 31.9968 32.3581 40.3938 22.0011 40.3938Z" fill="url(#paint3_linear_136_102)"/>
</g>
<g opacity="0.36">
<path d="M22.0002 7.15331C21.8342 7.15331 21.6992 7.01871 21.6992 6.85261V3.96731C21.6992 3.80121 21.8342 3.6665 22.0002 3.6665C22.1662 3.6665 22.3012 3.80121 22.3012 3.96731V6.85261C22.3012 7.01871 22.1662 7.15331 22.0002 7.15331Z" fill="white"/>
<path d="M19.8813 5.84951C19.7333 5.84951 19.6033 5.73932 19.5833 5.58802L19.3953 4.15831C19.3733 3.99361 19.4893 3.84251 19.6543 3.82091C19.8183 3.79951 19.9703 3.91511 19.9923 4.07981L20.1803 5.50942C20.2013 5.67422 20.0863 5.82531 19.9213 5.84691C19.9083 5.84861 19.8943 5.84951 19.8813 5.84951Z" fill="white"/>
<path d="M15.7892 6.94636C15.6712 6.94636 15.5592 6.87656 15.5112 6.76066L14.9582 5.42776C14.8952 5.27426 14.9682 5.09837 15.1212 5.03467C15.2752 4.97117 15.4512 5.04396 15.5142 5.19736L16.0672 6.53026C16.1302 6.68376 16.0572 6.85967 15.9042 6.92337C15.8662 6.93907 15.8272 6.94636 15.7892 6.94636Z" fill="white"/>
<path d="M12.1204 9.06502C12.0304 9.06502 11.9414 9.02502 11.8824 8.94702L11.0034 7.80272C10.9024 7.67092 10.9274 7.48212 11.0594 7.38102C11.1904 7.27992 11.3794 7.30472 11.4804 7.43652L12.3594 8.58102C12.4604 8.71302 12.4354 8.90202 12.3034 9.00302C12.2494 9.04502 12.1844 9.06502 12.1204 9.06502Z" fill="white"/>
<path d="M9.12506 12.0609C9.06106 12.0609 8.99676 12.0399 8.94216 11.9979L7.79736 11.1199C7.66556 11.0189 7.64076 10.8299 7.74186 10.6979C7.84306 10.5659 8.03196 10.5419 8.16356 10.6429L9.30836 11.5209C9.44056 11.6219 9.46456 11.8109 9.36356 11.9429C9.30466 12.0199 9.21536 12.0609 9.12506 12.0609Z" fill="white"/>
<path d="M7.00675 15.7299C6.96845 15.7299 6.92945 15.7229 6.89165 15.7069L5.55875 15.1549C5.40525 15.0909 5.33245 14.9149 5.39605 14.7609C5.45965 14.6079 5.63555 14.5349 5.78915 14.5989L7.12205 15.1509C7.27555 15.2149 7.34835 15.3909 7.28475 15.5439C7.23675 15.6599 7.12475 15.7299 7.00675 15.7299Z" fill="white"/>
<path d="M5.90865 19.8217C5.89555 19.8217 5.88234 19.8207 5.86894 19.8187L4.43935 19.6307C4.27455 19.6087 4.15865 19.4577 4.18035 19.2937C4.20205 19.1287 4.35315 19.0137 4.51785 19.0347L5.94754 19.2227C6.11224 19.2447 6.22825 19.3957 6.20645 19.5597C6.18655 19.7117 6.05715 19.8217 5.90865 19.8217Z" fill="white"/>
<path d="M18.1723 7.65784C18.0393 7.65784 17.9173 7.56924 17.8813 7.43484L17.1353 4.64774C17.0923 4.48734 17.1873 4.32234 17.3473 4.27934C17.5083 4.23644 17.6733 4.33154 17.7163 4.49204L18.4623 7.27914C18.5053 7.43964 18.4103 7.60464 18.2503 7.64754C18.2243 7.65454 18.1973 7.65784 18.1723 7.65784Z" fill="white"/>
<path d="M14.6067 9.13403C14.5027 9.13403 14.4017 9.08003 14.3457 8.98403L12.9037 6.48534C12.8207 6.34154 12.8697 6.15763 13.0137 6.07453C13.1567 5.99153 13.3407 6.04063 13.4237 6.18453L14.8667 8.68304C14.9497 8.82704 14.9007 9.01103 14.7567 9.09403C14.7097 9.12103 14.6577 9.13403 14.6067 9.13403Z" fill="white"/>
<path d="M11.5436 11.484C11.4666 11.484 11.3896 11.455 11.3316 11.396L9.29118 9.35601C9.17377 9.23901 9.17377 9.04901 9.29118 8.93101C9.40858 8.81401 9.59957 8.81401 9.71657 8.93101L11.7566 10.971C11.8736 11.088 11.8736 11.279 11.7566 11.396C11.6976 11.455 11.6206 11.484 11.5436 11.484Z" fill="white"/>
<path d="M9.1938 14.5468C9.1427 14.5468 9.0911 14.5338 9.0436 14.5068L6.545 13.0638C6.4011 12.9808 6.3518 12.7968 6.4349 12.6528C6.518 12.5088 6.702 12.4598 6.8458 12.5428L9.34411 13.9858C9.48811 14.0688 9.5381 14.2528 9.4541 14.3968C9.3991 14.4928 9.2978 14.5468 9.1938 14.5468Z" fill="white"/>
<path d="M7.7171 18.1129C7.6914 18.1129 7.66519 18.1099 7.63899 18.1029L4.85189 17.3559C4.69149 17.3139 4.59629 17.1489 4.63919 16.9879C4.68219 16.8279 4.84689 16.7319 5.00759 16.7749L7.79479 17.5219C7.95519 17.5649 8.05039 17.7299 8.00749 17.8899C7.97149 18.0249 7.8499 18.1129 7.7171 18.1129Z" fill="white"/>
<path d="M7.21334 21.9399H4.32804C4.16194 21.9399 4.02734 21.8059 4.02734 21.6399C4.02734 21.4729 4.16194 21.3389 4.32804 21.3389H7.21334C7.37944 21.3389 7.51414 21.4729 7.51414 21.6399C7.51414 21.8059 7.37944 21.9399 7.21334 21.9399Z" fill="white"/>
<path d="M4.47822 24.247C4.32952 24.247 4.20032 24.137 4.18032 23.986C4.15872 23.821 4.27463 23.67 4.43933 23.648L5.86892 23.46C6.03402 23.439 6.18472 23.554 6.20642 23.719C6.22802 23.884 6.11212 24.035 5.94752 24.056L4.51783 24.245C4.50453 24.246 4.49132 24.247 4.47822 24.247Z" fill="white"/>
<path d="M5.67405 28.704C5.55595 28.704 5.44405 28.634 5.39605 28.518C5.33245 28.364 5.40525 28.1879 5.55875 28.1249L6.89165 27.572C7.04535 27.509 7.22115 27.582 7.28475 27.735C7.34835 27.888 7.27555 28.064 7.12205 28.128L5.78915 28.681C5.75145 28.696 5.71235 28.704 5.67405 28.704Z" fill="white"/>
<path d="M7.98066 32.6986C7.89036 32.6986 7.80106 32.6576 7.74186 32.5806C7.64076 32.4486 7.66556 32.2606 7.79736 32.1586L8.94216 31.2806C9.07396 31.1796 9.26276 31.2036 9.36356 31.3356C9.46456 31.4676 9.44056 31.6566 9.30836 31.7576L8.16356 32.6366C8.10896 32.6786 8.04466 32.6986 7.98066 32.6986Z" fill="white"/>
<path d="M11.2414 35.9599C11.1774 35.9599 11.1134 35.9399 11.0594 35.8979C10.9274 35.7969 10.9024 35.6079 11.0034 35.4769L11.8824 34.3319C11.9834 34.1999 12.1724 34.1749 12.3034 34.2759C12.4354 34.3779 12.4604 34.5659 12.3594 34.6979L11.4804 35.8429C11.4214 35.9199 11.3324 35.9599 11.2414 35.9599Z" fill="white"/>
<path d="M15.2362 38.2667C15.1982 38.2667 15.1592 38.2597 15.1212 38.2437C14.9682 38.1807 14.8952 38.0047 14.9582 37.8507L15.5112 36.5177C15.5752 36.3647 15.7502 36.2917 15.9042 36.3557C16.0572 36.4187 16.1302 36.5947 16.0672 36.7487L15.5142 38.0817C15.4662 38.1977 15.3542 38.2667 15.2362 38.2667Z" fill="white"/>
<path d="M19.6943 39.4606C19.6813 39.4606 19.6673 39.4596 19.6543 39.4586C19.4893 39.4366 19.3733 39.2857 19.3953 39.1207L19.5833 37.6907C19.6053 37.5267 19.7563 37.4107 19.9213 37.4317C20.0863 37.4537 20.2023 37.6047 20.1803 37.7697L19.9923 39.1996C19.9723 39.3506 19.8423 39.4606 19.6943 39.4606Z" fill="white"/>
<path d="M4.9296 26.5139C4.7967 26.5139 4.67519 26.4259 4.63919 26.2909C4.59629 26.1309 4.69149 25.966 4.85189 25.923L7.63899 25.1759C7.79979 25.1339 7.96449 25.2289 8.00749 25.3889C8.05039 25.5499 7.95519 25.714 7.79479 25.757L5.00759 26.504C4.98159 26.511 4.9554 26.5139 4.9296 26.5139Z" fill="white"/>
<path d="M6.69565 30.7768C6.59165 30.7768 6.49066 30.7228 6.43486 30.6258C6.35186 30.4818 6.40106 30.2978 6.54496 30.2148L9.04356 28.7728C9.18746 28.6888 9.37105 28.7388 9.45405 28.8828C9.53705 29.0268 9.48806 29.2108 9.34406 29.2938L6.84566 30.7358C6.79836 30.7638 6.74665 30.7768 6.69565 30.7768Z" fill="white"/>
<path d="M13.1641 37.2449C13.1131 37.2449 13.0611 37.2319 13.0141 37.2049C12.8701 37.1219 12.8201 36.9379 12.9041 36.7939L14.3461 34.2949C14.4291 34.1509 14.6131 34.1019 14.7571 34.1849C14.9011 34.2679 14.9501 34.4519 14.8671 34.5959L13.4251 37.0949C13.3691 37.1909 13.2681 37.2449 13.1641 37.2449Z" fill="white"/>
<path d="M17.4253 39.0099C17.4003 39.0099 17.3743 39.0069 17.3473 38.9999C17.1873 38.9569 17.0923 38.7919 17.1353 38.6319L17.8813 35.8449C17.9243 35.6839 18.0893 35.5889 18.2503 35.6319C18.4103 35.6749 18.5053 35.8399 18.4623 35.9999L17.7163 38.7869C17.6803 38.9219 17.5583 39.0099 17.4253 39.0099Z" fill="white"/>
<path d="M22.0002 39.613C21.8342 39.613 21.6992 39.478 21.6992 39.312V36.427C21.6992 36.26 21.8342 36.126 22.0002 36.126C22.1662 36.126 22.3012 36.26 22.3012 36.427V39.312C22.3012 39.478 22.1662 39.613 22.0002 39.613Z" fill="white"/>
<path d="M24.3068 39.4606C24.1588 39.4606 24.0298 39.3506 24.0098 39.1996L23.8208 37.7697C23.7998 37.6047 23.9158 37.4537 24.0798 37.4317C24.2448 37.4107 24.3958 37.5267 24.4178 37.6907L24.6058 39.1207C24.6278 39.2857 24.5118 39.4367 24.3468 39.4577C24.3338 39.4597 24.3198 39.4606 24.3068 39.4606Z" fill="white"/>
<path d="M28.7634 38.2667C28.6454 38.2667 28.5334 38.1967 28.4854 38.0817L27.9334 36.7487C27.8694 36.5947 27.9424 36.4187 28.0954 36.3557C28.2484 36.2917 28.4254 36.3647 28.4884 36.5177L29.0414 37.8507C29.1054 38.0047 29.0324 38.1807 28.8784 38.2437C28.8414 38.2597 28.8024 38.2667 28.7634 38.2667Z" fill="white"/>
<path d="M32.7581 35.9599C32.6671 35.9599 32.5781 35.9199 32.5191 35.8429L31.6401 34.6979C31.5391 34.5659 31.5641 34.3779 31.6961 34.2759C31.8271 34.1749 32.0161 34.1999 32.1171 34.3319L32.9961 35.4769C33.0971 35.6079 33.0721 35.7969 32.9411 35.8979C32.8861 35.9399 32.8221 35.9599 32.7581 35.9599Z" fill="white"/>
<path d="M36.0193 32.6986C35.9553 32.6986 35.8913 32.6786 35.8363 32.6356L34.6913 31.7576C34.5603 31.6566 34.5353 31.4676 34.6363 31.3356C34.7373 31.2036 34.9263 31.1786 35.0573 31.2806L36.2023 32.1586C36.3343 32.2596 36.3593 32.4486 36.2583 32.5806C36.1983 32.6576 36.1093 32.6986 36.0193 32.6986Z" fill="white"/>
<path d="M38.3276 28.7026C38.2886 28.7026 38.2496 28.6956 38.2126 28.6796L36.8796 28.1276C36.7256 28.0636 36.6526 27.8876 36.7166 27.7346C36.7796 27.5806 36.9556 27.5086 37.1096 27.5716L38.4426 28.1246C38.5956 28.1876 38.6686 28.3636 38.6056 28.5176C38.5576 28.6336 38.4456 28.7026 38.3276 28.7026Z" fill="white"/>
<path d="M39.5217 24.2467C39.5087 24.2467 39.4957 24.2457 39.4827 24.2447L38.0527 24.0557C37.8877 24.0347 37.7717 23.8837 37.7937 23.7187C37.8157 23.5537 37.9667 23.4377 38.1317 23.4597L39.5607 23.6477C39.7257 23.6697 39.8417 23.8207 39.8197 23.9857C39.7997 24.1367 39.6707 24.2467 39.5217 24.2467Z" fill="white"/>
<path d="M26.5747 39.0099C26.4417 39.0099 26.3197 38.9219 26.2837 38.7869L25.5377 35.9999C25.4947 35.8399 25.5897 35.6749 25.7497 35.6319C25.9097 35.5889 26.0757 35.6839 26.1187 35.8439L26.8647 38.6319C26.9077 38.7919 26.8127 38.9569 26.6527 38.9999C26.6267 39.0069 26.5997 39.0099 26.5747 39.0099Z" fill="white"/>
<path d="M30.8352 37.2449C30.7312 37.2449 30.6302 37.1909 30.5752 37.0949L29.1322 34.5959C29.0492 34.4519 29.0982 34.2679 29.2422 34.1849C29.3862 34.1019 29.5702 34.1509 29.6532 34.2949L31.0962 36.7939C31.1792 36.9379 31.1292 37.1219 30.9852 37.2049C30.9382 37.2319 30.8862 37.2449 30.8352 37.2449Z" fill="white"/>
<path d="M34.497 34.4357C34.42 34.4357 34.343 34.4067 34.284 34.3477L32.244 32.3077C32.127 32.1907 32.127 32.0007 32.244 31.8827C32.362 31.7657 32.552 31.7657 32.67 31.8827L34.709 33.9227C34.827 34.0397 34.827 34.2307 34.709 34.3477C34.651 34.4067 34.574 34.4357 34.497 34.4357Z" fill="white"/>
<path d="M37.3042 30.7768C37.2532 30.7768 37.2022 30.7638 37.1542 30.7358L34.6562 29.2938C34.5122 29.2098 34.4632 29.0268 34.5462 28.8828C34.6292 28.7388 34.8132 28.6898 34.9572 28.7728L37.4552 30.2148C37.5992 30.2978 37.6482 30.4818 37.5652 30.6258C37.5092 30.7228 37.4082 30.7768 37.3042 30.7768Z" fill="white"/>
<path d="M39.0708 26.5138C39.0448 26.5138 39.0188 26.5108 38.9928 26.5038L36.2058 25.7568C36.0448 25.7138 35.9498 25.5488 35.9928 25.3888C36.0358 25.2288 36.2008 25.1328 36.3608 25.1758L39.1488 25.9228C39.3088 25.9658 39.4038 26.1308 39.3608 26.2908C39.3248 26.4258 39.2038 26.5138 39.0708 26.5138Z" fill="white"/>
<path d="M39.6723 21.9399H36.7873C36.6213 21.9399 36.4863 21.8059 36.4863 21.6399C36.4863 21.4729 36.6213 21.3389 36.7873 21.3389H39.6723C39.8383 21.3389 39.9733 21.4729 39.9733 21.6399C39.9733 21.8059 39.8383 21.9399 39.6723 21.9399Z" fill="white"/>
<path d="M39.6723 21.9399H36.7873C36.6213 21.9399 36.4863 21.8059 36.4863 21.6399C36.4863 21.4729 36.6213 21.3389 36.7873 21.3389H39.6723C39.8383 21.3389 39.9733 21.4729 39.9733 21.6399C39.9733 21.8059 39.8383 21.9399 39.6723 21.9399Z" fill="white"/>
<path d="M38.0907 19.8217C37.9427 19.8217 37.8137 19.7117 37.7937 19.5607C37.7717 19.3957 37.8877 19.2447 38.0527 19.2227L39.4817 19.0347C39.6467 19.0137 39.7977 19.1287 39.8197 19.2937C39.8407 19.4577 39.7247 19.6097 39.5607 19.6307L38.1307 19.8197C38.1177 19.8207 38.1037 19.8217 38.0907 19.8217Z" fill="white"/>
<path d="M36.9946 15.7299C36.8766 15.7299 36.7646 15.6599 36.7166 15.5439C36.6526 15.3909 36.7256 15.2149 36.8796 15.1509L38.2126 14.5989C38.3656 14.5349 38.5416 14.6079 38.6056 14.7619C38.6686 14.9149 38.5956 15.0909 38.4426 15.1549L37.1096 15.7069C37.0716 15.7229 37.0326 15.7299 36.9946 15.7299Z" fill="white"/>
<path d="M34.8752 12.0606C34.7852 12.0606 34.6962 12.0196 34.6362 11.9426C34.5352 11.8106 34.5602 11.6226 34.6922 11.5206L35.8372 10.6426C35.9682 10.5416 36.1572 10.5666 36.2582 10.6976C36.3592 10.8296 36.3352 11.0186 36.2032 11.1196L35.0582 11.9986C35.0032 12.0406 34.9392 12.0606 34.8752 12.0606Z" fill="white"/>
<path d="M31.8785 9.06456C31.8145 9.06456 31.7505 9.04457 31.6955 9.00257C31.5635 8.90157 31.5395 8.71256 31.6405 8.58056L32.5185 7.43617C32.6195 7.30427 32.8085 7.27936 32.9405 7.38056C33.0725 7.48176 33.0975 7.67056 32.9955 7.80226L32.1175 8.94657C32.0585 9.02457 31.9685 9.06456 31.8785 9.06456Z" fill="white"/>
<path d="M28.2094 6.94648C28.1714 6.94648 28.1314 6.93908 28.0944 6.92348C27.9404 6.85988 27.8674 6.68388 27.9314 6.53038L28.4844 5.19738C28.5474 5.04388 28.7244 4.97118 28.8774 5.03468C29.0304 5.09828 29.1034 5.27428 29.0394 5.42778L28.4874 6.76078C28.4394 6.87648 28.3274 6.94648 28.2094 6.94648Z" fill="white"/>
<path d="M24.1181 5.84948C24.1041 5.84948 24.0911 5.84858 24.0781 5.84688C23.9131 5.82528 23.7971 5.67409 23.8191 5.50939L24.0071 4.07979C24.0291 3.91509 24.1801 3.79959 24.3451 3.82089C24.5091 3.84249 24.6251 3.99368 24.6041 4.15828L24.4151 5.58799C24.3951 5.73929 24.2661 5.84948 24.1181 5.84948Z" fill="white"/>
<path d="M36.2828 18.1129C36.1498 18.1129 36.0288 18.0249 35.9928 17.8899C35.9498 17.7299 36.0448 17.5649 36.2048 17.5219L38.9928 16.7749C39.1528 16.7319 39.3178 16.8279 39.3608 16.9879C39.4038 17.1489 39.3088 17.3139 39.1478 17.3569L36.3608 18.1029C36.3348 18.1099 36.3088 18.1129 36.2828 18.1129Z" fill="white"/>
<path d="M34.8062 14.5468C34.7022 14.5468 34.6012 14.4928 34.5462 14.3968C34.4632 14.2528 34.5122 14.0688 34.6562 13.9858L37.1542 12.5428C37.2982 12.4598 37.4822 12.5088 37.5652 12.6528C37.6482 12.7968 37.5992 12.9808 37.4552 13.0638L34.9572 14.5068C34.9092 14.5338 34.8572 14.5468 34.8062 14.5468Z" fill="white"/>
<path d="M29.3926 9.13391C29.3416 9.13391 29.2896 9.12091 29.2426 9.09391C29.0986 9.01091 29.0486 8.82692 29.1326 8.68292L30.5746 6.18451C30.6576 6.04071 30.8416 5.99151 30.9856 6.07451C31.1296 6.15761 31.1786 6.34152 31.0956 6.48532L29.6536 8.98391C29.5976 9.07991 29.4966 9.13391 29.3926 9.13391Z" fill="white"/>
<path d="M25.8277 7.65793C25.8027 7.65793 25.7757 7.65453 25.7497 7.64753C25.5897 7.60463 25.4947 7.43973 25.5377 7.27913L26.2837 4.49203C26.3267 4.33163 26.4917 4.23643 26.6527 4.27933C26.8127 4.32233 26.9077 4.48723 26.8647 4.64773L26.1187 7.43483C26.0827 7.56933 25.9607 7.65793 25.8277 7.65793Z" fill="white"/>
<path d="M22.0002 7.15331C21.8342 7.15331 21.6992 7.01871 21.6992 6.85261V3.96731C21.6992 3.80121 21.8342 3.6665 22.0002 3.6665C22.1662 3.6665 22.3012 3.80121 22.3012 3.96731V6.85261C22.3012 7.01871 22.1662 7.15331 22.0002 7.15331Z" fill="white"/>
</g>
<path d="M34.6892 8.94971L19.4492 19.0887L22.0002 21.6397L34.6892 8.94971Z" fill="#F4413D"/>
<path d="M34.689 8.94971L22 21.6397L24.55 24.1897L34.689 8.94971Z" fill="#CC2B2B"/>
<path d="M19.4495 19.0889L9.31055 34.3289L22.0005 21.6399L19.4495 19.0889Z" fill="white"/>
<path d="M9.31055 34.3286L24.5505 24.1896L22.0005 21.6396L9.31055 34.3286Z" fill="#D8D8D8"/>
</g>
<defs>
<linearGradient id="paint0_linear_136_102" x1="22.0005" y1="43.2777" x2="22.0005" y2="0" gradientUnits="userSpaceOnUse">
<stop stop-color="#F2F2F2"/>
<stop offset="1" stop-color="white"/>
</linearGradient>
<linearGradient id="paint1_linear_136_102" x1="22.0005" y1="43.2787" x2="22.0005" y2="0" gradientUnits="userSpaceOnUse">
<stop/>
<stop offset="0.36" stop-opacity="0"/>
</linearGradient>
<linearGradient id="paint2_linear_136_102" x1="22.0006" y1="41.1148" x2="22.0006" y2="2.16406" gradientUnits="userSpaceOnUse">
<stop stop-color="#3871E9"/>
<stop offset="1" stop-color="#61C5F6"/>
</linearGradient>
<linearGradient id="paint3_linear_136_102" x1="22.0011" y1="41.1148" x2="22.0011" y2="2.16406" gradientUnits="userSpaceOnUse">
<stop/>
<stop offset="0.36" stop-opacity="0"/>
</linearGradient>
</defs>
</svg>
