<svg width="44" height="44" viewBox="0 0 44 44" fill="none" xmlns="http://www.w3.org/2000/svg">
<path d="M35.1077 0H8.88685C3.97595 0 0 3.97645 0 8.88796V35.1175C0 40.0236 3.97595 44 8.88685 44H35.1131C40.0185 44 44 40.0236 44 35.1119V8.88796C43.9945 3.97645 40.0185 0 35.1077 0Z" fill="url(#paint0_linear_136_58)"/>
<path d="M21.9396 9.98161L22.8635 8.38491C23.4337 7.38691 24.7054 7.05051 25.7034 7.62071C26.7013 8.19101 27.0378 9.46261 26.4675 10.4606L17.5658 25.869H24.004C26.0911 25.869 27.2601 28.3211 26.3534 30.0204H7.47804C6.32614 30.0204 5.40234 29.0966 5.40234 27.9447C5.40234 26.7928 6.32614 25.869 7.47804 25.869H12.77L19.5447 14.1274L17.4291 10.4549C16.8588 9.45691 17.1952 8.19671 18.1932 7.61501C19.1912 7.04481 20.4514 7.38121 21.0331 8.37921L21.9396 9.98161Z" fill="white"/>
<path d="M13.9318 32.1591L11.9359 35.6205C11.3656 36.6185 10.094 36.9549 9.09597 36.3846C8.09797 35.8144 7.76158 34.5428 8.33188 33.5448L9.81448 30.9787C11.491 30.4597 12.8539 30.8589 13.9318 32.1591Z" fill="white"/>
<path d="M31.1199 25.8809H36.5202C37.6721 25.8809 38.596 26.8047 38.596 27.9566C38.596 29.1085 37.6721 30.0324 36.5202 30.0324H33.5207L35.5451 33.5451C36.1153 34.5431 35.7789 35.8034 34.7809 36.385C33.7829 36.9552 32.5227 36.6188 31.941 35.6209C28.5309 29.7073 25.9704 25.2821 24.2711 22.3339C22.5318 19.3343 23.775 16.3234 25.001 15.3027C26.364 17.6407 28.3998 21.1706 31.1199 25.8809Z" fill="white"/>
<defs>
<linearGradient id="paint0_linear_136_58" x1="22" y1="0" x2="22" y2="44" gradientUnits="userSpaceOnUse">
<stop stop-color="#00BFFC"/>
<stop offset="1" stop-color="#0073F6"/>
</linearGradient>
</defs>
</svg>
