<svg width="44" height="44" viewBox="0 0 44 44" fill="none" xmlns="http://www.w3.org/2000/svg">
<mask id="mask0_136_79" style="mask-type:luminance" maskUnits="userSpaceOnUse" x="0" y="0" width="44" height="44">
<path d="M44 0H0V44H44V0Z" fill="white"/>
</mask>
<g mask="url(#mask0_136_79)">
<path d="M41.7579 14.7578C40.8319 12.529 38.9549 10.1229 37.4809 9.36252C38.6809 11.7137 39.3749 14.0723 39.6399 15.8325C39.6399 15.8359 39.641 15.8445 39.644 15.868C37.234 9.85953 33.1459 7.43673 29.8079 2.16143C29.6399 1.89473 29.4709 1.62723 29.3059 1.34533C29.2219 1.20133 29.1439 1.05423 29.0709 0.904227C28.9329 0.636527 28.8259 0.353526 28.7529 0.061026C28.7539 0.032226 28.7329 0.00752656 28.7039 0.00382656C28.6909 2.65625e-05 28.6769 2.65625e-05 28.6639 0.00382656C28.6609 0.00482656 28.6569 0.00842681 28.6529 0.00962681C28.6489 0.0115268 28.617 0.0305262 28.618 0.0288262C23.263 3.16523 21.4749 8.94473 21.3079 11.8475C19.1689 11.9945 17.1239 12.7824 15.4399 14.1085C15.2639 13.9595 15.0799 13.8203 14.8879 13.6915C14.4019 11.9915 14.3809 10.1922 14.8279 8.48153C12.6379 9.47873 10.9349 11.0549 9.69592 12.4467H9.68695C8.84095 11.3763 8.90094 7.84523 8.94894 7.10793C8.93894 7.06223 8.31895 7.42993 8.23795 7.48543C7.49195 8.01773 6.79493 8.61493 6.15393 9.27023C5.42493 10.0092 4.75893 10.8078 4.16293 11.6576C4.16293 11.6586 4.16294 11.6599 4.16194 11.6609C4.16194 11.6598 4.16293 11.6586 4.16293 11.6576C2.79193 13.6002 1.81993 15.7953 1.30293 18.116C1.29293 18.1622 1.28394 18.2101 1.27394 18.2567C1.23394 18.4443 1.08993 19.3833 1.06393 19.5873C1.06193 19.603 1.06094 19.6181 1.05994 19.6338C0.872937 20.6045 0.756943 21.5875 0.713943 22.5751C0.713943 22.6115 0.710938 22.6475 0.710938 22.684C0.711938 34.4568 10.2569 44.0002 22.0309 44.0002C32.5749 44.0002 41.3299 36.3457 43.0439 26.2914C43.0799 26.0186 43.1089 25.7442 43.1409 25.469C43.5649 21.8133 43.0939 17.9709 41.7579 14.7578ZM17.1859 31.4433C17.2859 31.4909 17.3799 31.5429 17.4819 31.5887C17.4859 31.5916 17.4919 31.5948 17.4969 31.5975C17.3919 31.5478 17.2889 31.4963 17.1859 31.4433ZM39.6459 15.8732L39.6429 15.8525C39.6439 15.8601 39.6449 15.868 39.6469 15.8755L39.6459 15.8732Z" fill="url(#paint0_linear_136_79)"/>
<path d="M41.7589 14.7576C40.8329 12.5289 38.9559 10.1228 37.4829 9.3623C38.6819 11.7135 39.3759 14.0721 39.6409 15.8323C39.6409 15.8272 39.6419 15.8366 39.6439 15.8524C39.6449 15.8599 39.6469 15.8678 39.6479 15.8753C41.6589 21.3282 40.5639 26.8732 38.9849 30.2616C36.5419 35.5043 30.6269 40.8773 21.3689 40.6152C11.3669 40.332 2.55488 32.9105 0.909882 23.19C0.609882 21.6572 0.909883 20.8788 1.06088 19.6342C0.876883 20.5937 0.80689 20.8708 0.71489 22.5756C0.71489 22.6119 0.712891 22.6479 0.712891 22.6844C0.712891 34.4566 10.2579 44 22.0319 44C32.5759 44 41.3309 36.3456 43.0449 26.2912C43.0809 26.0184 43.1099 25.7441 43.1419 25.4688C43.5659 21.8131 43.0949 17.9708 41.7589 14.7576Z" fill="url(#paint1_radial_136_79)"/>
<path d="M41.7589 14.7576C40.8329 12.5289 38.9559 10.1228 37.4829 9.3623C38.6819 11.7135 39.3759 14.0721 39.6409 15.8323C39.6409 15.8272 39.6419 15.8366 39.6439 15.8524C39.6449 15.8599 39.6469 15.8678 39.6479 15.8753C41.6589 21.3282 40.5639 26.8732 38.9849 30.2616C36.5419 35.5043 30.6269 40.8773 21.3689 40.6152C11.3669 40.332 2.55488 32.9105 0.909882 23.19C0.609882 21.6572 0.909883 20.8788 1.06088 19.6342C0.876883 20.5937 0.80689 20.8708 0.71489 22.5756C0.71489 22.6119 0.712891 22.6479 0.712891 22.6844C0.712891 34.4566 10.2579 44 22.0319 44C32.5759 44 41.3309 36.3456 43.0449 26.2912C43.0809 26.0184 43.1099 25.7441 43.1419 25.4688C43.5659 21.8131 43.0949 17.9708 41.7589 14.7576Z" fill="url(#paint2_radial_136_79)"/>
<path d="M31.3986 17.2633C31.4446 17.2959 31.4876 17.3284 31.5306 17.3608C30.9956 16.4112 30.3296 15.5419 29.5516 14.7783C22.9246 8.15228 28.6236 0.0258789 28.6236 0.0258789C23.2686 3.16228 21.4756 8.94418 21.3086 11.8469C21.5566 11.8297 21.8046 11.8088 22.0576 11.8088C26.0536 11.8089 29.5346 14.0062 31.3986 17.2633Z" fill="url(#paint3_radial_136_79)"/>
<path d="M22.069 18.5866C22.034 19.1169 20.161 20.9456 19.506 20.9456C13.443 20.9456 12.459 24.6124 12.459 24.6124C12.728 27.7003 14.878 30.2432 17.481 31.5887C17.6 31.65 17.72 31.7055 17.84 31.7603C18.047 31.8516 18.256 31.937 18.467 32.0163C19.359 32.3324 20.294 32.5126 21.241 32.5513C31.866 33.0497 33.925 19.8488 26.257 16.0154C28.22 15.6739 30.259 16.4636 31.397 17.2632C29.533 14.0065 26.052 11.8091 22.056 11.8091C21.803 11.8091 21.556 11.83 21.307 11.8471C19.169 11.9942 17.124 12.782 15.44 14.1081C15.765 14.3831 16.132 14.7507 16.905 15.5122C18.351 16.9375 22.061 18.4134 22.069 18.5866Z" fill="url(#paint4_radial_136_79)"/>
<path d="M22.069 18.5866C22.034 19.1169 20.161 20.9456 19.506 20.9456C13.443 20.9456 12.459 24.6124 12.459 24.6124C12.728 27.7003 14.878 30.2432 17.481 31.5887C17.6 31.65 17.72 31.7055 17.84 31.7603C18.047 31.8516 18.256 31.937 18.467 32.0163C19.359 32.3324 20.294 32.5126 21.241 32.5513C31.866 33.0497 33.925 19.8488 26.257 16.0154C28.22 15.6739 30.259 16.4636 31.397 17.2632C29.533 14.0065 26.052 11.8091 22.056 11.8091C21.803 11.8091 21.556 11.83 21.307 11.8471C19.169 11.9942 17.124 12.782 15.44 14.1081C15.765 14.3831 16.132 14.7507 16.905 15.5122C18.351 16.9375 22.061 18.4134 22.069 18.5866Z" fill="url(#paint5_radial_136_79)"/>
<path d="M14.4463 13.3992C14.5953 13.495 14.7423 13.5926 14.8883 13.6919C14.4023 11.9919 14.3823 10.1926 14.8283 8.48193C12.6383 9.47913 10.9353 11.0553 9.69727 12.4471C9.79927 12.4443 12.8913 12.3886 14.4463 13.3992Z" fill="url(#paint6_radial_136_79)"/>
<path d="M0.909872 23.1903C2.55487 32.9108 11.3669 40.3324 21.3689 40.6156C30.6269 40.8776 36.5409 35.5042 38.9839 30.262C40.5629 26.8734 41.6589 21.3291 39.6479 15.8757L39.6469 15.8734L39.6439 15.8528C39.6419 15.837 39.6409 15.8276 39.6409 15.8328C39.6409 15.8362 39.6419 15.8448 39.6449 15.8683C40.4009 20.8059 37.8899 25.5892 33.9629 28.8236L33.9519 28.8514C26.3009 35.0807 18.9799 32.6098 17.4979 31.5983C17.3939 31.5482 17.2899 31.4966 17.1869 31.4437C12.7269 29.3121 10.8839 25.2485 11.2789 21.7635C7.51286 21.7635 6.22887 18.587 6.22887 18.587C6.22887 18.587 9.60989 16.176 14.0669 18.2729C18.1939 20.215 22.0709 18.5872 22.0709 18.587C22.0629 18.4139 18.3529 16.9379 16.9059 15.5127C16.1329 14.7513 15.7659 14.3841 15.4409 14.1086C15.2649 13.9597 15.0809 13.8205 14.8889 13.6917C14.7429 13.5925 14.5959 13.495 14.4469 13.399C12.8919 12.3884 9.79987 12.4441 9.69787 12.4467H9.68789C8.84289 11.3763 8.90188 7.84523 8.94988 7.10793C8.93988 7.06223 8.31988 7.42992 8.23888 7.48532C7.49288 8.01762 6.79587 8.61492 6.15487 9.27012C5.42587 10.0093 4.76087 10.8081 4.16387 11.658C2.79387 13.6007 1.82087 15.7957 1.30387 18.1164C1.29387 18.1625 0.536872 21.4732 0.909872 23.1903Z" fill="url(#paint7_radial_136_79)"/>
<path d="M29.5503 14.7785C30.3283 15.5421 30.9943 16.4114 31.5293 17.361C31.6473 17.4491 31.7563 17.5371 31.8493 17.6228C36.6823 22.0759 34.1503 28.3743 33.9613 28.8231C37.8883 25.5888 40.3993 20.8054 39.6433 15.8678C37.2323 9.85941 33.1453 7.43661 29.8073 2.16131C29.6393 1.89451 29.4703 1.62711 29.3053 1.34511C29.2213 1.20121 29.1433 1.05411 29.0703 0.904109C28.9313 0.636309 28.8253 0.353309 28.7513 0.0608087C28.7523 0.0321087 28.7323 0.00740838 28.7033 0.00370838C28.6903 -9.16237e-05 28.6823 -0.00159175 28.6693 0.00220825C28.6663 0.00320825 28.6553 0.00820849 28.6523 0.00940849C28.6483 0.0113085 28.6423 0.0157082 28.6373 0.0183082C27.8253 0.436108 22.9233 8.15241 29.5503 14.7785Z" fill="url(#paint8_radial_136_79)"/>
<path d="M31.8514 17.6226C31.7584 17.5368 31.6484 17.4489 31.5314 17.3607C31.4874 17.3281 31.4454 17.2956 31.3984 17.2632C30.2604 16.4636 28.2224 15.6738 26.2584 16.0153C33.9264 19.8487 31.8674 33.0496 21.2424 32.5513C20.2964 32.5127 19.3614 32.3323 18.4684 32.0162C18.2574 31.9368 18.0484 31.8515 17.8424 31.7602C17.7214 31.7054 17.6014 31.65 17.4824 31.5886C17.4874 31.5915 17.4924 31.5948 17.4974 31.5975C18.9794 32.6088 26.3004 35.0798 33.9514 28.8505L33.9634 28.8228C34.1514 28.3744 36.6844 22.0759 31.8514 17.6226Z" fill="url(#paint9_radial_136_79)"/>
<path d="M12.4595 24.6124C12.4595 24.6124 13.4436 20.9456 19.5056 20.9456C20.1616 20.9456 22.0346 19.1169 22.0696 18.5866C22.1046 18.0563 18.1926 20.2145 14.0656 18.2725C9.60857 16.1756 6.22656 18.5866 6.22656 18.5866C6.22656 18.5866 7.51154 21.7631 11.2775 21.7631C10.8825 25.2481 12.7256 29.3121 17.1856 31.4433C17.2856 31.4909 17.3786 31.543 17.4816 31.5887C14.8776 30.2432 12.7285 27.7003 12.4595 24.6124Z" fill="url(#paint10_radial_136_79)"/>
<path d="M41.7589 14.7577C40.8329 12.5289 38.9559 10.1228 37.4819 9.36241C38.6819 11.7136 39.3759 14.0722 39.6409 15.8324C39.6409 15.8358 39.6419 15.8444 39.6449 15.8679C37.2349 9.85941 33.1469 7.43661 29.8089 2.16131C29.6409 1.89451 29.4719 1.62711 29.3069 1.34511C29.2229 1.20121 29.1449 1.05411 29.0719 0.904109C28.9339 0.636309 28.8269 0.353408 28.7539 0.0608077C28.7549 0.0321077 28.7339 0.00740838 28.7049 0.00370838C28.6919 -9.16237e-05 28.6839 -0.00159175 28.6709 0.00220825C28.6679 0.00330825 28.6579 0.00820849 28.6539 0.00940849C28.6499 0.0113085 28.6329 0.0210077 28.6309 0.0222078C23.1239 3.31871 21.4759 8.94461 21.3089 11.8474C21.5569 11.8302 21.8049 11.8093 22.0569 11.8093C26.0539 11.8093 29.5349 14.0066 31.3979 17.2635C30.2599 16.4638 28.2219 15.6741 26.2579 16.0156C33.9259 19.849 31.8679 33.0499 21.2419 32.5515C20.2959 32.5129 19.3609 32.3326 18.4679 32.0166C18.2569 31.9372 18.0479 31.8518 17.8419 31.7606C17.7219 31.7058 17.6009 31.6503 17.4829 31.589C17.4869 31.5919 17.4929 31.5952 17.4969 31.5978C17.3929 31.5477 17.2889 31.4962 17.1869 31.4432C17.2859 31.4908 17.3799 31.5429 17.4819 31.5886C14.8789 30.2431 12.7289 27.7003 12.4609 24.6124C12.4609 24.6124 13.4449 20.9456 19.5069 20.9456C20.1619 20.9456 22.0359 19.1168 22.0699 18.5865C22.0629 18.4134 18.3519 16.9374 16.9059 15.5123C16.1329 14.7508 15.7659 14.3837 15.4409 14.1082C15.2639 13.9592 15.0799 13.82 14.8879 13.6912C14.4029 11.9912 14.3819 10.1919 14.8289 8.48121C12.6389 9.47841 10.9349 11.0546 9.69687 12.4464H9.68689C8.84189 11.376 8.90089 7.84491 8.94989 7.10761C8.93989 7.06191 8.31888 7.42961 8.23788 7.48501C7.49188 8.01731 6.79488 8.61451 6.15488 9.26981C5.42588 10.009 4.75988 10.8076 4.16388 11.6574C4.16388 11.6585 4.16389 11.6598 4.16289 11.6608C4.16289 11.6597 4.16388 11.6585 4.16388 11.6574C2.79388 13.6001 1.82088 15.7952 1.30388 18.1159C1.29388 18.1621 1.28489 18.21 1.27489 18.2565C1.23489 18.4442 1.05488 19.3967 1.02888 19.601C1.03088 19.5854 1.02688 19.6167 1.02888 19.601C0.864885 20.5852 0.75989 21.5785 0.71489 22.5754C0.71489 22.6118 0.712891 22.6478 0.712891 22.6843C0.712891 34.4566 10.2579 44 22.0319 44C32.5759 44 41.3309 36.3455 43.0449 26.2912C43.0809 26.0183 43.1099 25.744 43.1419 25.4688C43.5659 21.8132 43.0949 17.9708 41.7589 14.7577ZM39.6439 15.8524C39.6449 15.86 39.6469 15.8679 39.6479 15.8753L39.6469 15.873L39.6439 15.8524Z" fill="url(#paint11_linear_136_79)"/>
</g>
<defs>
<linearGradient id="paint0_linear_136_79" x1="37.8509" y1="6.80693" x2="3.61993" y2="39.8393" gradientUnits="userSpaceOnUse">
<stop offset="0.05" stop-color="#FFF339"/>
<stop offset="0.37" stop-color="#FF9800"/>
<stop offset="0.53" stop-color="#FF3346"/>
<stop offset="0.7" stop-color="#FF0D8A"/>
</linearGradient>
<radialGradient id="paint1_radial_136_79" cx="0" cy="0" r="1" gradientUnits="userSpaceOnUse" gradientTransform="translate(38.0629 9.3646) scale(43.6022 44.3365)">
<stop offset="0.13" stop-color="#FFBD44"/>
<stop offset="0.28" stop-color="#FF9800"/>
<stop offset="0.47" stop-color="#FF3450"/>
<stop offset="0.78" stop-color="#FF027B"/>
<stop offset="0.86" stop-color="#FF0083"/>
</radialGradient>
<radialGradient id="paint2_radial_136_79" cx="0" cy="0" r="1" gradientUnits="userSpaceOnUse" gradientTransform="translate(21.5749 23.2332) scale(44.6923 44.3365)">
<stop offset="0.3" stop-color="#AF0611"/>
<stop offset="0.35" stop-color="#CE1223" stop-opacity="0.74"/>
<stop offset="0.43" stop-color="#FD243B" stop-opacity="0.34"/>
<stop offset="0.5" stop-color="#FF304B" stop-opacity="0.09"/>
<stop offset="0.53" stop-color="#FF3450" stop-opacity="0"/>
</radialGradient>
<radialGradient id="paint3_radial_136_79" cx="0" cy="0" r="1" gradientUnits="userSpaceOnUse" gradientTransform="translate(26.2146 -2.05339) scale(14.3107 24.296)">
<stop offset="0.13" stop-color="#FFF339"/>
<stop offset="0.53" stop-color="#FF9800"/>
</radialGradient>
<radialGradient id="paint4_radial_136_79" cx="0" cy="0" r="1" gradientUnits="userSpaceOnUse" gradientTransform="translate(16.768 34.6686) scale(18.9384 20.7567)">
<stop offset="0.35" stop-color="#008EE9"/>
<stop offset="0.67" stop-color="#A059FF"/>
<stop offset="1" stop-color="#DF36EA"/>
</radialGradient>
<radialGradient id="paint5_radial_136_79" cx="0" cy="0" r="1" gradientUnits="userSpaceOnUse" gradientTransform="translate(21.322 18.6552) scale(10.0554 12.2453)">
<stop offset="0.21" stop-color="#A059FF" stop-opacity="0"/>
<stop offset="0.97" stop-color="#80008E" stop-opacity="0.6"/>
</radialGradient>
<radialGradient id="paint6_radial_136_79" cx="0" cy="0" r="1" gradientUnits="userSpaceOnUse" gradientTransform="translate(20.5993 3.27123) scale(15.0557 15.1092)">
<stop offset="0.1" stop-color="#FFE200"/>
<stop offset="0.79" stop-color="#FF7232"/>
</radialGradient>
<radialGradient id="paint7_radial_136_79" cx="0" cy="0" r="1" gradientUnits="userSpaceOnUse" gradientTransform="translate(34.3459 -6.63731) scale(71.8795 60.3389)">
<stop offset="0.11" stop-color="#FFF339"/>
<stop offset="0.46" stop-color="#FF9800"/>
<stop offset="0.72" stop-color="#FF3346"/>
<stop offset="0.9" stop-color="#FF0D8A"/>
</radialGradient>
<radialGradient id="paint8_radial_136_79" cx="0" cy="0" r="1" gradientUnits="userSpaceOnUse" gradientTransform="translate(28.2663 -5.45772) rotate(83.9544) scale(47.2548 47.6086)">
<stop stop-color="#FFF339"/>
<stop offset="0.3" stop-color="#FF9800"/>
<stop offset="0.57" stop-color="#FF3346"/>
<stop offset="0.74" stop-color="#FF0D8A"/>
</radialGradient>
<radialGradient id="paint9_radial_136_79" cx="0" cy="0" r="1" gradientUnits="userSpaceOnUse" gradientTransform="translate(20.7534 8.70547) scale(41.2685 40.5435)">
<stop offset="0.14" stop-color="#FFF339"/>
<stop offset="0.48" stop-color="#FF9800"/>
<stop offset="0.66" stop-color="#FF3346"/>
<stop offset="0.9" stop-color="#FF0D8A"/>
</radialGradient>
<radialGradient id="paint10_radial_136_79" cx="0" cy="0" r="1" gradientUnits="userSpaceOnUse" gradientTransform="translate(31.4646 11.0742) scale(49.6034 44.3762)">
<stop offset="0.09" stop-color="#FFF339"/>
<stop offset="0.63" stop-color="#FF9800"/>
</radialGradient>
<linearGradient id="paint11_linear_136_79" x1="35.7529" y1="7.05831" x2="8.37588" y2="36.9715" gradientUnits="userSpaceOnUse">
<stop offset="0.17" stop-color="#FFF339" stop-opacity="0.8"/>
<stop offset="0.6" stop-color="#FFF339" stop-opacity="0"/>
</linearGradient>
</defs>
</svg>
