<svg width="44" height="44" viewBox="0 0 44 44" fill="none" xmlns="http://www.w3.org/2000/svg">
<mask id="mask0_136_169" style="mask-type:luminance" maskUnits="userSpaceOnUse" x="0" y="0" width="44" height="44">
<path d="M44 0H0V44H44V0Z" fill="white"/>
</mask>
<g mask="url(#mask0_136_169)">
<path d="M37.62 6.3232C33.44 2.2825 27.94 0 22.082 0C5.27 0 -5.28601 18.2137 3.10899 32.7027L0 43.9997L11.614 40.9717C16.674 43.7047 20.819 43.4627 22.093 43.6247C41.587 43.6247 51.291 20.0397 37.592 6.3947L37.62 6.3232Z" fill="#ECEFF1"/>
<path d="M22.1223 39.8765L22.1113 39.8745H22.0823C16.2483 39.8745 12.5213 37.1125 12.1543 36.9525L5.2793 38.7405L7.1223 32.0575L6.6843 31.3705C4.8693 28.4805 3.9043 25.1535 3.9043 21.7265C3.9043 5.60616 23.6043 -2.45504 35.0033 8.93946C46.3753 20.2145 38.3913 39.8765 22.1223 39.8765Z" fill="#4CAF50"/>
<path d="M32.0968 26.2298L32.0798 26.3668C31.5278 26.0918 28.8408 24.7778 28.3398 24.5958C27.2158 24.1798 27.5328 24.5298 25.3758 27.0018C25.0548 27.3588 24.7358 27.3868 24.1908 27.1388C23.6408 26.8638 21.8758 26.2868 19.7858 24.4168C18.1578 22.9588 17.0648 21.1718 16.7418 20.6218C16.2048 19.6938 17.3288 19.5618 18.3518 17.6258C18.5348 17.2408 18.4418 16.9378 18.3058 16.6648C18.1688 16.3898 17.0738 13.6948 16.6158 12.6208C16.1758 11.5498 15.7228 11.6858 15.3838 11.6858C14.3278 11.5938 13.5558 11.6088 12.8758 12.3168C9.91681 15.5688 10.6628 18.9238 13.1948 22.4918C18.1708 29.0038 20.8218 30.2028 25.6688 31.8668C26.9778 32.2828 28.1708 32.2248 29.1158 32.0888C30.1678 31.9218 32.3548 30.7668 32.8118 29.4748C33.2788 28.1818 33.2788 27.1098 33.1418 26.8618C33.0058 26.6148 32.6468 26.4768 32.0968 26.2298Z" fill="#FAFAFA"/>
</g>
</svg>
