<svg width="44" height="44" viewBox="0 0 44 44" fill="none" xmlns="http://www.w3.org/2000/svg">
<mask id="mask0_136_176" style="mask-type:luminance" maskUnits="userSpaceOnUse" x="0" y="0" width="44" height="44">
<path d="M44 0H0V44H44V0Z" fill="white"/>
</mask>
<g mask="url(#mask0_136_176)">
<path d="M14.759 34.3987C12.327 31.5267 10.751 27.2817 10.644 22.5187C10.644 22.5057 10.644 21.4947 10.644 21.4817C10.751 16.7187 12.327 12.4737 14.759 9.6027C17.915 5.5039 22.651 3.8928 27.891 3.8928C31.114 3.8928 36.663 5.6003 36.663 5.6003C32.79 2.1354 27.684 0.0217986 22.083 0.00109863C22.056 0.000998633 22.028 0 22 0C9.84999 0 0 9.8497 0 21.9997C0 33.7987 9.28899 43.4277 20.953 43.9747C21.3 43.9907 21.649 43.9997 22 43.9997C27.633 43.9997 32.77 41.8827 36.662 38.4017C36.662 38.4017 31.324 39.6167 28.101 39.6167C22.862 39.6167 17.915 38.4967 14.759 34.3987Z" fill="url(#paint0_linear_136_176)"/>
<path d="M14.7598 9.60287C16.7778 7.21967 19.3858 5.78237 22.2348 5.78237C28.6388 5.78237 33.8308 13.0439 33.8308 22.0009C33.8308 30.9579 28.6388 38.2189 22.2348 38.2189C19.3858 38.2189 16.7778 36.7809 14.7598 34.3989C17.9158 38.4969 22.6078 41.0959 27.8468 41.0959C31.0688 41.0959 34.0838 40.1119 36.6628 38.4009C41.1658 34.3729 44.0008 28.5179 44.0008 21.9999C44.0008 15.4829 41.1668 9.62887 36.6638 5.60037C34.0848 3.88937 31.0698 2.90527 27.8468 2.90527C22.6078 2.90527 17.9158 5.50417 14.7598 9.60287Z" fill="url(#paint1_linear_136_176)"/>
</g>
<defs>
<linearGradient id="paint0_linear_136_176" x1="18.332" y1="0.7174" x2="18.332" y2="43.3597" gradientUnits="userSpaceOnUse">
<stop offset="0.3" stop-color="#FF1B2D"/>
<stop offset="0.4381" stop-color="#FA1A2C"/>
<stop offset="0.5939" stop-color="#ED1528"/>
<stop offset="0.7581" stop-color="#D60E21"/>
<stop offset="0.9272" stop-color="#B70519"/>
<stop offset="1" stop-color="#A70014"/>
</linearGradient>
<linearGradient id="paint1_linear_136_176" x1="29.3798" y1="3.23097" x2="29.3798" y2="40.9459" gradientUnits="userSpaceOnUse">
<stop stop-color="#9C0000"/>
<stop offset="0.7" stop-color="#FF4B4B"/>
</linearGradient>
</defs>
</svg>
