<svg width="184" height="124" viewBox="0 0 184 124" fill="none" xmlns="http://www.w3.org/2000/svg">
<g clip-path="url(#clip0_135_52)">
<path d="M52.0828 0.499863C52.0828 0.781738 51.9419 1.47361 51.7625 2.03736C51.3781 3.24174 50.4044 4.65111 48.9566 6.08611C47.8419 7.17518 46.5094 8.69986 45.9584 9.48142C45.3819 10.327 45.1256 11.3521 45.1641 12.7358C45.2538 15.8492 45.2666 15.7467 44.7541 16.7845C44.1006 18.1427 43.8572 18.4246 42.3453 19.6161C39.1678 22.1146 35.2728 25.8942 33.0563 28.6361C31.57 30.4683 31.6597 30.4042 31.7622 29.7252C31.8903 28.8796 32.3516 27.9955 33.2356 26.9064C34.7731 25.023 35.4138 23.0755 35.1703 21.0383C34.8628 18.5399 34.0684 15.798 32.4156 11.5186C31.9031 10.1989 31.6084 9.72487 31.9159 10.7114C32.0184 11.0574 32.1466 11.8261 32.185 12.4283C32.2491 13.3508 32.1978 13.7095 31.9159 14.7986C31.7238 15.5033 31.3522 16.6564 31.0831 17.3611C30.4169 19.0652 29.8275 20.9102 29.6866 21.7814C29.4688 22.973 29.8403 24.5617 30.6475 25.8686C31.4547 27.2139 31.6341 28.4183 31.2625 30.1736C31.0959 30.9552 30.9038 31.3011 29.6738 33.1205C27.3547 36.5414 25.3944 40.1417 23.8953 43.7933C23.2291 45.3821 23.2675 45.3692 22.6653 44.2033L22.2938 43.4986V40.7439C22.2938 38.0533 22.2809 37.9636 21.935 36.9642C21.73 36.4005 21.4609 35.7599 21.32 35.5292C20.9997 35.0167 19.4622 33.5817 18.45 32.8642C17.6172 32.2621 11.9413 29.3408 11.6209 29.3408C11.5056 29.3408 11.7363 29.5586 12.1078 29.8149C13.6197 30.8911 14.2603 32.1724 15.1188 35.8752C15.3494 36.9002 15.7594 38.3864 16.0156 39.1936C16.4384 40.4749 16.5538 40.7183 17.0919 41.2564C17.6813 41.8458 18.9113 42.5377 19.3853 42.5377C20.0516 42.5377 20.9356 42.9477 21.4353 43.4858C22.0375 44.1521 22.2425 44.498 22.6013 45.5871L22.8703 46.4071L22.4731 47.573C20.4616 53.6717 19.5391 59.2964 19.4878 65.5874C19.4878 67.1377 19.4366 68.3677 19.3981 68.3421C19.1547 68.2011 18.7191 66.9199 18.3731 65.3055C18.1553 64.3061 17.835 63.0761 17.6556 62.5892C17.2584 61.5002 16.3103 59.8474 15.7081 59.2324C15.1956 58.7071 13.2738 57.413 12.2359 56.8877C10.9291 56.2471 4.54844 54.0946 4.54844 54.3124C4.54844 54.3508 4.89438 54.543 5.30438 54.7352C6.94438 55.5039 8.13594 57.0799 9.96813 60.9108C11.2494 63.5758 12.3513 65.4336 12.9534 65.9717C13.8375 66.7533 14.8113 67.1505 16.0669 67.2658C17.4122 67.3683 18.0016 67.6502 18.8472 68.5855L19.4878 69.2774L19.6416 71.2377C20.1797 77.7208 21.6147 83.6658 24.1003 89.6492C24.4975 90.623 24.9331 91.6352 25.0741 91.8914C25.2022 92.1605 25.2534 92.3783 25.1894 92.3783C25.1125 92.3783 24.6897 92.0196 24.2413 91.5711C23.6519 91.0074 23.1138 90.2643 22.3578 89.0086C21.7813 88.0349 20.9741 86.8049 20.5513 86.2796C19.68 85.1905 17.8991 83.7042 16.7844 83.1533C16.0413 82.7817 12.9663 81.8977 11.4928 81.6158C10.3269 81.398 3.75406 80.9752 1.79375 80.988L0 81.0008L1.34531 81.2827C2.08844 81.4364 3.12625 81.7439 3.65156 81.9746C4.90719 82.5127 6.94438 84.1142 9.39156 86.4974C12.5819 89.6108 14.4909 91.1099 15.7594 91.5199C17.425 92.0452 18.5653 92.1093 20.295 91.7889C21.6531 91.5327 22.4859 91.6736 23.9594 92.3783C25.4456 93.0958 25.8172 93.4674 26.6628 95.0305C29.3278 100.053 32.6206 104.525 36.7463 108.74L38.3991 110.431L37.6047 110.239C35.9134 109.842 35.1575 109.406 33.1331 107.638C30.5066 105.345 29.315 104.601 27.06 103.833C25.8813 103.436 25.3944 103.346 24.3438 103.295C23.0241 103.243 20.0772 103.576 18.1297 103.986C15.9644 104.461 4.80469 108.573 4.80469 108.906C4.80469 108.958 5.13781 108.906 5.54781 108.778C6.72656 108.407 8.31531 108.227 9.59656 108.304C11.1725 108.407 14.2347 109.419 17.22 110.828C19.4494 111.879 22.9344 113.237 24.2925 113.583C25.6891 113.955 27.7519 113.762 29.4303 113.135C29.8275 112.994 30.75 112.481 31.4931 111.994C32.2491 111.507 33.1203 111.046 33.4406 110.969C35.0038 110.572 36.7206 110.687 38.6425 111.29C39.5138 111.559 39.8084 111.751 41.2947 112.981C44.8181 115.902 48.5081 118.336 52.3263 120.297C54.1584 121.232 57.7331 122.872 57.9253 122.872C57.9509 122.872 57.9766 122.539 57.9766 122.116C57.9766 121.386 57.9638 121.36 57.5666 121.194C54.1584 119.836 49.6484 117.363 46.2275 114.98C45.3306 114.352 42.9347 112.545 42.4863 112.161C42.3325 112.02 42.1019 110.303 42.0891 109.227C42.0891 107.215 42.3453 106.498 43.6778 104.755C45.0616 102.949 45.7663 100.796 45.6381 98.7461C45.5613 97.2727 44.5875 94.0439 43.1781 90.5461C42.2556 88.2399 41.4613 85.6261 41.1666 83.9093C40.9231 82.4743 41.2947 79.9886 42.025 78.2589C42.0763 78.1308 42.0634 78.0283 41.9994 78.0283C41.6534 78.0283 36.7334 89.3289 36.2209 91.2893C35.7597 93.0318 35.1703 96.4655 35.1703 97.3752C35.1703 98.4386 35.7469 100.809 36.2978 102.026C36.9 103.346 37.4766 104.23 39.0269 106.241C39.8084 107.241 40.5516 108.266 40.6797 108.522C40.9872 109.137 41.4741 110.764 41.4228 111.021C41.3716 111.302 38.6169 108.753 36.6181 106.575C33.1844 102.821 30.1991 98.6693 28.1619 94.8127L27.5213 93.5955L27.6238 92.4552C27.7903 90.6614 28.3413 89.2136 29.2381 88.1374C29.4303 87.9196 29.9941 87.4711 30.4938 87.1636C31.5956 86.4589 32.2106 85.8824 32.9281 84.883C34.2863 82.9739 34.4016 82.3974 34.4656 76.7471C34.5297 72.2499 34.6834 70.0205 35.0038 69.0596C35.3625 67.9833 36.0544 66.6892 36.695 65.8821C37.0538 65.4464 37.2972 65.0877 37.2459 65.0877C36.9897 65.0877 30.5194 71.8655 29.2381 73.4671C28.5591 74.3511 26.5219 77.7849 26.2144 78.5921C25.9581 79.2839 25.6891 81.1161 25.6891 82.2052C25.6891 83.2558 26.0222 84.8958 26.65 86.9074C27.1625 88.5858 27.2266 88.8933 27.2138 89.9696C27.2138 90.623 27.1369 91.443 27.0472 91.8018L26.8934 92.4424L26.5988 91.8018C24.8306 87.9836 23.7031 84.8702 22.6909 80.9752C21.6916 77.0802 20.9484 71.8142 20.9484 68.4317C20.9484 67.1633 20.9741 67.0608 21.3328 66.4971C21.8325 65.7283 22.9216 64.6777 23.6134 64.3317C23.8953 64.1908 24.7153 63.973 25.42 63.8705C27.7006 63.5246 29.3278 62.6405 30.2503 61.2183C30.9166 60.2189 32.0569 57.9511 32.8641 56.0292C34.2863 52.6596 35.6188 50.9939 37.6688 49.9689C38.2325 49.6871 38.6041 49.4564 38.4888 49.4564C38.0403 49.4564 31.7238 51.7499 29.3406 52.7877C28.5206 53.1336 25.6634 54.9402 24.9716 55.5296C24.6769 55.7858 24.1644 56.4264 23.8184 56.9646C22.9472 58.3739 22.5372 59.6808 22.2938 61.8205C22.1913 62.8071 22.0631 63.7808 22.0247 63.9986C21.9222 64.4855 21.4481 65.4336 21.0894 65.8564L20.8203 66.1767L20.8844 65.4721C20.91 65.0877 20.9741 63.9474 21.0125 62.9608C21.2047 57.9639 22.4219 51.7499 24.2028 46.7146C24.5231 45.8433 24.8563 44.9592 24.9716 44.7542C25.2791 44.1392 26.7653 42.8452 27.6366 42.4224C28.5463 41.9739 29.0075 41.9355 31.0063 42.0892C32.3516 42.1917 33.5559 41.9996 34.4656 41.5383C35.0678 41.2436 37.0025 39.2961 38.4375 37.5408C39.1678 36.6567 40.2441 35.4652 40.8463 34.8758C42.0634 33.6971 43.0244 33.1717 44.5747 32.8386C45.0744 32.7361 45.51 32.6208 45.5484 32.5824C45.7791 32.3389 36.7078 33.1589 35.4778 33.5049C34.1069 33.8892 32.3003 34.4914 31.8134 34.7349C31.0959 35.1064 29.7378 36.4389 29.1613 37.3486C28.8794 37.7971 28.3669 38.8477 28.0466 39.6805C27.7134 40.5133 27.2778 41.4102 27.0856 41.6792C26.7397 42.1661 25.6891 43.1527 25.6891 42.9861C25.6891 42.9477 25.9966 42.2174 26.3809 41.3846C27.6494 38.5658 29.9941 34.5555 31.9416 31.8392C32.9409 30.4683 35.0422 27.8289 35.3753 27.5342C35.7853 27.1755 36.8488 26.8936 38.0531 26.8167C39.1166 26.7527 39.2959 26.7783 40.3978 27.1499C41.7816 27.6239 43.3319 27.8289 44.4594 27.6624C45.4459 27.5214 47.2397 26.7783 49.7125 25.4971C50.7759 24.9461 52.2109 24.2799 52.9156 24.0108C54.1584 23.5367 54.2353 23.5239 55.9522 23.5239C56.9131 23.5111 57.6819 23.4855 57.6563 23.4599C57.5666 23.383 55.1322 22.9346 52.1597 22.4605C49.405 22.0121 49.0078 21.9736 46.4453 21.9864C43.7547 21.9864 43.665 21.9864 42.8194 22.3324C41.205 22.973 40.3978 23.4855 39.0653 24.7411C37.7969 25.9583 37.515 26.1633 36.5413 26.5733L36.0416 26.7783L36.6822 26.0352C38.8859 23.4855 43.4088 19.6033 46.9578 17.1817C48.7131 15.9902 49.2384 15.8236 51.0578 15.8364C52.5313 15.8492 53.0822 16.003 54.1841 16.6692C55.6959 17.6046 57.7075 18.0786 59.1041 17.8224C60.3213 17.6045 62.7428 16.9767 63.8575 16.6052C64.3828 16.4258 65.5488 16.1183 66.4713 15.9389C67.8294 15.6699 68.3163 15.6186 69.0978 15.6955C69.9819 15.7724 70.9684 15.9774 71.6219 16.2208C71.8013 16.2849 71.8397 16.272 71.75 16.1824C71.5706 16.003 68.4188 14.8114 65.4078 13.7864C62.6916 12.8767 59.9753 12.2874 58.425 12.2746C57.3231 12.2746 55.8881 12.5692 54.9528 12.9921C54.5684 13.1714 53.6331 13.7096 52.8772 14.2092C52.1213 14.6961 51.3909 15.1317 51.25 15.1702C50.6734 15.3367 49.7894 15.4649 49.8534 15.3624C50.0456 15.042 54.7222 12.6333 56.5031 11.9414L57.6563 11.493L59.6678 11.5186C61.7819 11.5442 62.1919 11.4802 63.6653 10.9292C64.4597 10.6346 64.7288 10.4296 66.1509 9.0458C67.7525 7.48268 69.2131 5.62486 71.5322 2.13986C72.4419 0.79455 72.6597 0.24361 71.8525 1.33267C71.6347 1.64017 71.0581 2.1783 70.5841 2.53705C69.8922 3.04955 69.4181 3.26736 68.1113 3.69017C67.2272 3.98486 65.9459 4.34361 65.2797 4.49736C63.7038 4.86892 62.0509 5.41986 61.3719 5.81705C60.7313 6.20142 59.9497 7.0983 58.9631 8.58455C57.8997 10.2117 57.0028 10.8652 53.4153 12.6589C50.6478 14.0427 48.4441 15.3111 46.3556 16.7333C45.4844 17.3099 44.7797 17.7583 44.7797 17.7199C44.7797 17.6814 44.9719 17.3995 45.2153 17.1049C45.5228 16.7333 46.0481 16.3617 46.9578 15.8877C48.5978 15.0292 49.2256 14.5424 49.9688 13.5814C50.7375 12.582 50.9681 12.0311 51.4294 10.1349C51.8266 8.52048 52.0188 6.7908 52.1469 3.7158C52.1853 2.76767 52.2494 1.53767 52.2878 0.986733C52.3391 0.333296 52.3134 0.000176087 52.2238 0.000176087C52.1469 0.000176087 52.0828 0.230801 52.0828 0.499863Z" fill="#C7C7C7" fill-opacity="0.75"/>
<path d="M129.944 2.24209C130.187 8.98146 130.738 11.9668 132.045 13.7349C132.839 14.824 133.698 15.4902 135.312 16.2974C136.17 16.733 136.773 17.1302 137.144 17.5274C137.439 17.8477 137.657 18.1296 137.631 18.1552C137.605 18.1808 137.067 17.8605 136.452 17.4505C134.454 16.118 131.801 14.619 128.97 13.2352C124.831 11.2108 123.986 10.6087 122.884 8.90459C121.846 7.30303 121.141 6.59834 120.078 6.09866C119.168 5.67584 117.041 5.02241 115.581 4.74053C114.505 4.52272 112.493 3.86928 111.75 3.49772C111.391 3.31834 110.674 2.75459 110.148 2.22928C109.61 1.70397 109.162 1.28115 109.136 1.28115C109.046 1.28115 110.815 3.76678 112.455 5.97053C114.44 8.64834 116.35 10.5318 117.759 11.2108C119.232 11.9283 120.155 12.0821 122.282 11.9924C124.011 11.9155 124.165 11.9283 125.075 12.2358C126.356 12.6587 128.726 13.7605 130.661 14.8111C132.506 15.8105 132.698 15.9515 131.981 15.8362C130.905 15.644 130.52 15.4774 129.239 14.6574C127.496 13.5427 126.779 13.2224 125.28 12.9149C124.345 12.7227 123.806 12.6843 123.089 12.7483C121.321 12.9021 118.848 13.4402 116.631 14.1705C113.454 15.2083 109.751 16.5537 109.751 16.6818C109.751 16.733 109.905 16.7202 110.11 16.6433C110.725 16.3999 112.314 16.1437 113.146 16.1437C114.184 16.1437 116.17 16.5408 118.271 17.1687C123.499 18.719 124.793 18.719 127.906 17.1558C129.418 16.3871 129.495 16.3615 130.661 16.2974C131.34 16.2718 132.275 16.3102 132.801 16.3999C133.672 16.5408 133.89 16.6562 135.62 17.8093C137.772 19.2443 139.989 20.9355 141.872 22.5755C143.743 24.2027 146.702 27.0855 146.549 27.1368C146.19 27.2521 144.921 26.4705 143.845 25.4583C142.385 24.0874 141.5 23.5108 140.053 22.9343L138.9 22.4858H135.825C132.993 22.4858 132.545 22.5243 130.123 22.8958C126.01 23.5493 124.229 23.8824 124.229 23.9977C124.229 24.0618 124.345 24.0746 124.485 24.0233C124.883 23.8952 127.163 23.9337 127.894 24.0746C128.816 24.254 130.764 25.0612 133.006 26.1758C134.069 26.7012 135.479 27.3546 136.145 27.6236C137.349 28.1233 137.388 28.1233 139.028 28.1105C140.552 28.1105 140.809 28.0721 141.975 27.6877C143.448 27.2137 144.793 27.1368 146.049 27.4699C147.138 27.7646 147.292 27.8799 148.381 29.1483C150.315 31.3905 152.391 34.299 154.095 37.1177C155.107 38.7833 157.478 43.4087 157.375 43.5112C157.337 43.5496 156.94 43.2165 156.491 42.768C155.799 42.089 155.594 41.7815 155.235 40.8718C154.21 38.2708 153.506 37.1562 152.122 36.003C150.546 34.6705 147.766 33.8633 143.307 33.4405C140.142 33.1458 136.222 32.9793 137.4 33.1843C138.336 33.3637 139.566 33.7865 140.245 34.1708C141.014 34.6193 142.692 36.2593 144.153 37.989C145.703 39.834 147.586 41.6405 148.33 41.9993C148.663 42.1658 149.406 42.3836 149.995 42.499C150.93 42.6655 151.264 42.6783 152.481 42.5374C153.724 42.3965 153.98 42.3965 154.595 42.5758C155.492 42.8321 156.35 43.383 157.298 44.2927C157.952 44.9205 158.105 45.164 158.554 46.3043C159.976 49.9815 161.155 54.5299 161.706 58.4377C162.026 60.7055 162.282 63.7293 162.282 65.2155V66.5608L162.026 66.2405C161.373 65.4205 161.129 64.6133 160.873 62.5505C160.745 61.4487 160.54 60.2187 160.412 59.8343C160.053 58.6171 159.22 57.1565 158.387 56.2724C157.977 55.8368 155.338 54.1327 154.082 53.4921C153.314 53.1077 148.022 51.109 146.267 50.558C145.665 50.3658 144.934 50.1224 144.64 50.0327C143.768 49.7508 143.999 49.9943 145.114 50.5196C147.138 51.4805 148.509 53.223 150.149 56.9515C151.264 59.4755 152.519 61.7049 153.224 62.4224C153.608 62.8068 154.21 63.2168 154.89 63.5371C155.915 64.024 156.363 64.1521 158.272 64.4468C159.694 64.6774 161.014 65.6383 161.962 67.1246C162.244 67.573 162.282 67.7908 162.282 68.7005C162.282 70.8274 161.783 75.1965 161.245 77.9512C160.591 81.2824 159.412 85.2415 158.208 88.214C157.414 90.1487 156.222 92.7624 156.12 92.7624C155.966 92.7624 155.748 91.3018 155.748 90.3152C155.748 89.4952 155.85 89.0083 156.325 87.4965C157.08 85.1005 157.285 84.0499 157.285 82.6149C157.273 79.8474 157.042 79.1555 155.159 76.1318C154.339 74.7993 153.608 73.8383 152.545 72.6724C150.623 70.5455 145.511 65.4077 145.421 65.4974C145.383 65.5487 145.639 65.933 145.998 66.3687C146.69 67.2399 147.407 68.5083 147.727 69.4565C148.086 70.5712 148.355 73.6718 148.253 75.8499C148.163 78.1049 148.355 81.7949 148.65 82.9608C149.06 84.6008 150.328 86.228 152.16 87.458C152.878 87.9321 153.621 88.5215 153.826 88.7649C154.749 89.8796 155.338 91.6221 155.376 93.339C155.402 94.2871 155.402 94.2871 154.595 95.6708C151.981 100.168 148.945 104.14 145.408 107.715C143.55 109.585 141.142 111.776 141.052 111.674C140.95 111.584 141.513 109.701 141.808 109.124C141.949 108.829 142.769 107.702 143.627 106.638C145.229 104.614 146.203 103.089 146.664 101.859C147.176 100.514 147.548 98.7843 147.548 97.7721C147.548 96.5933 146.69 92.2243 146.19 90.8405C145.626 89.2646 142.782 82.8455 141.693 80.6546C140.655 78.5918 140.13 77.8743 140.719 79.3093C141.526 81.3208 141.616 83.563 141.001 85.9974C140.514 87.9705 140.27 88.6624 139.258 91.084C137.875 94.3896 136.657 98.3743 136.657 99.6043C136.657 100.501 137.106 102.231 137.631 103.371C137.862 103.896 138.413 104.755 138.848 105.293C139.886 106.574 140.232 107.356 140.399 108.765C140.527 109.701 140.514 110.111 140.347 111.136C140.219 111.943 140.053 112.468 139.912 112.647C139.31 113.301 135.325 116.068 132.814 117.555C130.559 118.9 126.1 121.065 124.204 121.757C124.011 121.821 123.973 121.988 123.973 122.616V123.384L124.652 123.115C130.559 120.796 136.465 117.324 141.577 113.16C142.628 112.314 143.025 112.071 143.82 111.815C145.293 111.328 146.472 111.161 147.817 111.251C149.316 111.341 149.905 111.546 151.405 112.506C152.775 113.378 153.583 113.711 155.171 114.044C156.542 114.326 157.593 114.351 158.631 114.108C159.95 113.788 163.653 112.404 166.126 111.276C168.381 110.264 170.7 109.419 172.532 108.957C173.596 108.688 176.44 108.765 177.593 109.098C179.72 109.713 179.323 109.419 176.568 108.33C173.314 107.036 166.408 104.716 164.999 104.435C162.949 104.025 159.361 103.627 158.477 103.704C157.516 103.807 155.799 104.294 154.505 104.832C153.185 105.37 151.879 106.254 149.79 108.009C147.766 109.688 147.202 110.059 146.01 110.431C144.089 111.02 144.089 111.046 146.023 109.137C149.931 105.255 153.288 100.873 156.004 96.0937C156.594 95.0687 157.157 94.1333 157.273 93.9924C157.631 93.5824 159.169 92.7496 160.168 92.4293C161.321 92.0705 161.834 92.0449 163.371 92.3268C164.358 92.519 164.678 92.519 165.729 92.378C167.19 92.1987 168.355 91.7887 169.252 91.1737C170.29 90.4562 172.379 88.6624 174.288 86.8558C176.671 84.588 178.9 82.9224 180.245 82.3843C181.347 81.9487 182.705 81.6155 183.397 81.6155C183.615 81.6155 183.807 81.5515 183.807 81.4746C183.807 81.308 181.604 81.3721 176.504 81.6924C172.84 81.923 171.738 82.0768 169.137 82.7815C166.818 83.3965 166.241 83.6527 164.909 84.6521C163.41 85.7668 162.257 87.0993 160.873 89.3158C160.207 90.3793 159.425 91.494 159.143 91.7887C158.682 92.2627 157.798 92.9674 157.798 92.8649C157.798 92.8393 158.118 92.109 158.515 91.2249C161.36 84.8443 163.051 78.3612 163.589 71.6987L163.743 69.764L164.384 69.0849C165.357 68.0471 165.716 67.8805 167.1 67.7652C168.586 67.6627 169.778 67.1502 170.649 66.2662C171.315 65.5871 172.66 63.3065 173.878 60.808C175.479 57.5408 176.735 55.9649 178.4 55.1833C178.849 54.9783 179.182 54.7862 179.156 54.7605C178.964 54.5683 171.956 56.9515 170.739 57.6177C169.265 58.4377 167.638 59.6165 167.254 60.1546C166.024 61.833 165.498 63.1015 164.87 65.9458C164.525 67.4833 164.05 68.803 163.845 68.803C163.794 68.803 163.756 67.5474 163.743 66.0099C163.73 62.9093 163.576 61.0386 163.102 57.9124C162.59 54.5811 161.667 50.8271 160.642 47.9571L160.271 46.9193L160.501 46.1633C160.809 45.1896 161.462 44.1262 162.052 43.6521C162.398 43.3702 162.833 43.2037 163.615 43.0371C165.14 42.7168 166.357 41.8968 166.895 40.859C167.228 40.2183 168.01 37.6174 168.317 36.144C168.586 34.8371 169.201 32.9152 169.611 32.0952C169.931 31.4674 171.072 30.3399 171.623 30.1221C171.84 30.0196 172.02 29.9043 172.02 29.8402C172.02 29.4815 165.409 32.8255 164.166 33.8121C162.372 35.2343 161.86 35.8365 161.411 36.9768C161.001 38.0402 160.655 40.1158 160.796 40.6668C160.835 40.8333 160.873 41.5765 160.886 42.3324C160.899 43.6777 160.886 43.7418 160.425 44.6643C160.168 45.1896 159.912 45.6124 159.861 45.6124C159.81 45.6124 159.579 45.1383 159.335 44.549C157.913 41.0255 155.159 36.1824 152.647 32.7358C151.699 31.4546 151.469 30.7115 151.456 29.0202V27.7262L152.122 26.5858C152.84 25.343 153.314 23.8696 153.314 22.9215C153.314 22.204 152.609 19.8337 151.827 17.9374C150.905 15.6824 150.585 14.2602 150.661 12.8765C150.7 12.2358 150.815 11.4799 150.93 11.1724C151.033 10.8777 151.084 10.6343 151.033 10.6343C150.982 10.6343 150.841 10.8777 150.725 11.1724C148.381 17.2199 147.92 18.7574 147.548 21.653C147.42 22.614 147.433 22.8574 147.676 23.7671C148.035 25.1637 148.535 26.1502 149.534 27.3546C149.995 27.9183 150.495 28.5846 150.623 28.8408C150.892 29.3533 151.2 30.468 151.11 30.5577C151.071 30.5962 150.418 29.8915 149.649 28.9946C147.023 25.9324 143.845 22.9343 140.181 20.0771C137.9 18.309 137.106 16.9893 137.183 15.1187C137.272 12.7996 137.221 11.7233 136.99 11.0443C136.696 10.173 135.632 8.84053 133.685 6.88022C131.66 4.85584 130.866 3.79241 130.456 2.53678C130.277 1.99866 130.123 1.39647 130.11 1.19147C130.11 0.99928 130.046 0.717407 129.982 0.576469C129.918 0.409907 129.892 1.0249 129.944 2.24209Z" fill="#C7C7C7" fill-opacity="0.75"/>
<path d="M133.334 54.1403L135.465 59.1634L140.87 59.6515C141.109 59.6722 141.285 59.8837 141.265 60.1237C141.255 60.2407 141.2 60.3427 141.118 60.4144L141.119 60.4146L137.029 64.0091L138.239 69.3367C138.292 69.5719 138.146 69.8062 137.912 69.8602C137.793 69.8879 137.673 69.8626 137.578 69.8L132.933 67.0047L128.274 69.809C128.068 69.9327 127.802 69.8652 127.678 69.6582C127.619 69.5577 127.604 69.4425 127.628 69.3367H127.627L128.837 64.0091L124.748 60.4147C124.567 60.2559 124.549 59.9801 124.707 59.7987C124.787 59.7064 124.897 59.6564 125.01 59.6502L130.401 59.1634L132.534 54.1376C132.627 53.9155 132.882 53.8121 133.103 53.9066C133.212 53.953 133.292 54.0387 133.334 54.1403ZM134.768 59.7455L132.933 55.4213L131.098 59.7455L131.098 59.7454C131.037 59.8889 130.902 59.9947 130.736 60.0092L126.083 60.4294L129.585 63.5076C129.714 63.6086 129.78 63.779 129.741 63.9499L128.701 68.5344L132.703 66.1259C132.836 66.0416 133.011 66.0341 133.156 66.1213L137.166 68.5344L136.125 63.9499L136.125 63.9497C136.091 63.7982 136.138 63.6332 136.263 63.5238L139.783 60.4294L135.154 60.0114C134.99 60.0062 134.836 59.9073 134.768 59.7455Z" fill="white"/>
<path d="M134.768 59.7455L132.933 55.4213L131.098 59.7455L131.098 59.7454C131.037 59.8889 130.902 59.9947 130.736 60.0092L126.083 60.4294L129.585 63.5076C129.714 63.6086 129.78 63.779 129.741 63.9499L128.701 68.5344L132.703 66.1259C132.836 66.0416 133.011 66.0341 133.156 66.1213L137.166 68.5344L136.125 63.9499L136.125 63.9497C136.091 63.7982 136.138 63.6332 136.263 63.5238L139.783 60.4294L135.154 60.0114C134.99 60.0062 134.836 59.9073 134.768 59.7455Z" fill="white"/>
<path d="M112.668 54.1403L114.799 59.1634L120.204 59.6515C120.443 59.6722 120.619 59.8837 120.599 60.1237C120.589 60.2407 120.534 60.3427 120.452 60.4144L120.453 60.4146L116.363 64.0091L117.573 69.3367C117.626 69.5719 117.48 69.8062 117.246 69.8602C117.127 69.8879 117.007 69.8626 116.912 69.8L112.267 67.0047L107.607 69.809C107.402 69.9327 107.135 69.8652 107.012 69.6582C106.953 69.5577 106.938 69.4425 106.962 69.3367H106.961L108.171 64.0091L104.082 60.4147C103.901 60.2559 103.883 59.9801 104.041 59.7987C104.121 59.7064 104.231 59.6564 104.344 59.6502L109.735 59.1634L111.868 54.1376C111.961 53.9155 112.216 53.8121 112.437 53.9066C112.546 53.953 112.626 54.0387 112.668 54.1403ZM114.102 59.7455L112.267 55.4213L110.432 59.7455L110.432 59.7454C110.371 59.8889 110.236 59.9947 110.07 60.0092L105.417 60.4294L108.919 63.5076C109.048 63.6086 109.114 63.779 109.075 63.9499L108.035 68.5344L112.037 66.1259C112.17 66.0416 112.345 66.0341 112.49 66.1213L116.5 68.5344L115.459 63.9499L115.459 63.9497C115.425 63.7982 115.472 63.6332 115.597 63.5238L119.117 60.4294L114.488 60.0114C114.324 60.0062 114.17 59.9073 114.102 59.7455Z" fill="white"/>
<path d="M114.102 59.7455L112.267 55.4213L110.432 59.7455L110.432 59.7454C110.371 59.8889 110.236 59.9947 110.07 60.0092L105.417 60.4294L108.919 63.5076C109.048 63.6086 109.114 63.779 109.075 63.9499L108.035 68.5344L112.037 66.1259C112.17 66.0416 112.345 66.0341 112.49 66.1213L116.5 68.5344L115.459 63.9499L115.459 63.9497C115.425 63.7982 115.472 63.6332 115.597 63.5238L119.117 60.4294L114.488 60.0114C114.324 60.0062 114.17 59.9073 114.102 59.7455Z" fill="white"/>
<path d="M92.0017 54.1403L94.133 59.1634L99.5384 59.6515C99.777 59.6722 99.9535 59.8837 99.9327 60.1237C99.9228 60.2407 99.8677 60.3427 99.7864 60.4144L99.7866 60.4146L95.6972 64.0091L96.9067 69.3367C96.9603 69.5719 96.8141 69.8062 96.5804 69.8602C96.4606 69.8879 96.3412 69.8626 96.2459 69.8L91.6011 67.0047L86.9415 69.809C86.7359 69.9327 86.4695 69.8652 86.3465 69.6582C86.2866 69.5577 86.2719 69.4425 86.2959 69.3367H86.2955L87.505 64.0091L83.4157 60.4147C83.2354 60.2559 83.2172 59.9801 83.3748 59.7987C83.455 59.7064 83.5654 59.6564 83.678 59.6502L89.0692 59.1634L91.2015 54.1376C91.2954 53.9155 91.5504 53.8121 91.771 53.9066C91.8795 53.953 91.9596 54.0387 92.0017 54.1403ZM93.4357 59.7455L91.6011 55.4213L89.7663 59.7455L89.7658 59.7454C89.705 59.8889 89.5695 59.9947 89.4043 60.0092L84.7513 60.4294L88.2532 63.5076C88.3819 63.6086 88.4482 63.779 88.4095 63.9499L87.3686 68.5344L91.3706 66.1259C91.5044 66.0416 91.6791 66.0341 91.8239 66.1213L95.8337 68.5344L94.793 63.9499L94.7934 63.9497C94.7592 63.7982 94.8064 63.6332 94.9306 63.5238L98.451 60.4294L93.822 60.0114C93.6581 60.0062 93.5042 59.9073 93.4357 59.7455Z" fill="white"/>
<path d="M93.4357 59.7455L91.6011 55.4213L89.7663 59.7455L89.7658 59.7454C89.705 59.8889 89.5695 59.9947 89.4043 60.0092L84.7513 60.4294L88.2532 63.5076C88.3819 63.6086 88.4482 63.779 88.4095 63.9499L87.3686 68.5344L91.3706 66.1259C91.5044 66.0416 91.6791 66.0341 91.8239 66.1213L95.8337 68.5344L94.793 63.9499L94.7934 63.9497C94.7592 63.7982 94.8064 63.6332 94.9306 63.5238L98.451 60.4294L93.822 60.0114C93.6581 60.0062 93.5042 59.9073 93.4357 59.7455Z" fill="white"/>
<path d="M71.3338 54.1403L73.465 59.1634L78.8705 59.6515C79.109 59.6722 79.2855 59.8837 79.2647 60.1237C79.2548 60.2407 79.1998 60.3427 79.1184 60.4144L79.1187 60.4146L75.0293 64.0091L76.2387 69.3367C76.2923 69.5719 76.1461 69.8062 75.9124 69.8602C75.7926 69.8879 75.6733 69.8626 75.5779 69.8L70.9331 67.0047L66.2735 69.809C66.0679 69.9327 65.8015 69.8652 65.6785 69.6582C65.6187 69.5577 65.6039 69.4425 65.6279 69.3367H65.6275L66.8371 64.0091L62.7477 60.4147C62.5674 60.2559 62.5493 59.9801 62.7069 59.7987C62.787 59.7064 62.8974 59.6564 63.01 59.6502L68.4012 59.1634L70.5335 54.1376C70.6274 53.9155 70.8824 53.8121 71.1031 53.9066C71.2116 53.953 71.2916 54.0387 71.3338 54.1403ZM72.7677 59.7455L70.9331 55.4213L69.0984 59.7455L69.0978 59.7454C69.0371 59.8889 68.9016 59.9947 68.7364 60.0092L64.0833 60.4294L67.5852 63.5076C67.714 63.6086 67.7803 63.779 67.7415 63.9499L66.7006 68.5344L70.7027 66.1259C70.8364 66.0416 71.0111 66.0341 71.156 66.1213L75.1657 68.5344L74.125 63.9499L74.1254 63.9497C74.0912 63.7982 74.1384 63.6332 74.2627 63.5238L77.7831 60.4294L73.154 60.0114C72.9901 60.0062 72.8362 59.9073 72.7677 59.7455Z" fill="white"/>
<path d="M72.7677 59.7455L70.9331 55.4213L69.0984 59.7455L69.0978 59.7454C69.0371 59.8889 68.9016 59.9947 68.7364 60.0092L64.0833 60.4294L67.5852 63.5076C67.714 63.6086 67.7803 63.779 67.7415 63.9499L66.7006 68.5344L70.7027 66.1259C70.8364 66.0416 71.0111 66.0341 71.156 66.1213L75.1657 68.5344L74.125 63.9499L74.1254 63.9497C74.0912 63.7982 74.1384 63.6332 74.2627 63.5238L77.7831 60.4294L73.154 60.0114C72.9901 60.0062 72.8362 59.9073 72.7677 59.7455Z" fill="white"/>
<path d="M50.6678 54.1403L52.799 59.1634L58.2044 59.6515C58.443 59.6722 58.6195 59.8837 58.5987 60.1237C58.5888 60.2407 58.5338 60.3427 58.4524 60.4144L58.4527 60.4146L54.3633 64.0091L55.5727 69.3367C55.6263 69.5719 55.4801 69.8062 55.2464 69.8602C55.1266 69.8879 55.0073 69.8626 54.9119 69.8L50.2671 67.0047L45.6075 69.809C45.4019 69.9327 45.1355 69.8652 45.0125 69.6582C44.9527 69.5577 44.9379 69.4425 44.9619 69.3367H44.9615L46.1711 64.0091L42.0817 60.4147C41.9014 60.2559 41.8832 59.9801 42.0408 59.7987C42.121 59.7064 42.2314 59.6564 42.344 59.6502L47.7352 59.1634L49.8675 54.1376C49.9614 53.9155 50.2164 53.8121 50.437 53.9066C50.5456 53.953 50.6256 54.0387 50.6678 54.1403ZM52.1017 59.7455L50.2671 55.4213L48.4324 59.7455L48.4318 59.7454C48.3711 59.8889 48.2356 59.9947 48.0704 60.0092L43.4173 60.4294L46.9192 63.5076C47.0479 63.6086 47.1143 63.779 47.0755 63.9499L46.0346 68.5344L50.0367 66.1259C50.1704 66.0416 50.3451 66.0341 50.4899 66.1213L54.4997 68.5344L53.459 63.9499L53.4594 63.9497C53.4252 63.7982 53.4724 63.6332 53.5967 63.5238L57.1171 60.4294L52.488 60.0114C52.3241 60.0062 52.1702 59.9073 52.1017 59.7455Z" fill="white"/>
<path d="M52.1017 59.7455L50.2671 55.4213L48.4324 59.7455L48.4318 59.7454C48.3711 59.8889 48.2356 59.9947 48.0704 60.0092L43.4173 60.4294L46.9192 63.5076C47.0479 63.6086 47.1143 63.779 47.0755 63.9499L46.0346 68.5344L50.0367 66.1259C50.1704 66.0416 50.3451 66.0341 50.4899 66.1213L54.4997 68.5344L53.459 63.9499L53.4594 63.9497C53.4252 63.7982 53.4724 63.6332 53.5967 63.5238L57.1171 60.4294L52.488 60.0114C52.3241 60.0062 52.1702 59.9073 52.1017 59.7455Z" fill="white"/>
</g>
<defs>
<clipPath id="clip0_135_52">
<rect width="184" height="124" fill="white"/>
</clipPath>
</defs>
</svg>
