<svg width="84" height="24" viewBox="0 0 84 24" fill="none" xmlns="http://www.w3.org/2000/svg">
<path d="M71.3695 0H12.6305C5.65487 0 0 5.37259 0 12C0 18.6274 5.65487 24 12.6305 24H71.3695C78.3451 24 84 18.6274 84 12C84 5.37259 78.3451 0 71.3695 0Z" fill="#119F7B"/>
<path d="M9.11978 16.8989C8.42178 16.8989 7.82577 16.755 7.32977 16.4673C6.83477 16.1795 6.45677 15.7648 6.19377 15.2231C5.93177 14.6815 5.80078 14.034 5.80078 13.2807V13.268C5.80078 12.519 5.93177 11.8779 6.19377 11.3447C6.45677 10.8115 6.83477 10.4031 7.32977 10.1196C7.82577 9.83181 8.41978 9.688 9.11378 9.688C9.71078 9.688 10.2228 9.79161 10.6498 9.99901C11.0818 10.2021 11.4228 10.4857 11.6718 10.8496C11.9258 11.2093 12.0828 11.6304 12.1418 12.1128V12.1382H10.6498L10.6438 12.1191C10.5718 11.7806 10.4068 11.5034 10.1488 11.2876C9.89477 11.0718 9.55178 10.9638 9.11978 10.9638C8.76078 10.9638 8.45177 11.0548 8.19377 11.2368C7.93977 11.4188 7.74477 11.6811 7.60977 12.0239C7.47377 12.3667 7.40678 12.7814 7.40678 13.268V13.2807C7.40678 13.7716 7.47377 14.1927 7.60977 14.5439C7.74877 14.8909 7.94578 15.1575 8.19978 15.3437C8.45378 15.5257 8.76078 15.6167 9.11978 15.6167C9.53078 15.6167 9.86078 15.5236 10.1108 15.3374C10.3648 15.1512 10.5398 14.8761 10.6378 14.5122L10.6498 14.4868L12.1358 14.4804L12.1288 14.5376C12.0528 15.0073 11.8878 15.4199 11.6338 15.7754C11.3838 16.1308 11.0498 16.408 10.6308 16.6069C10.2118 16.8016 9.70878 16.8989 9.11978 16.8989ZM15.8968 16.8989C15.2068 16.8989 14.6128 16.755 14.1128 16.4673C13.6138 16.1753 13.2288 15.7606 12.9578 15.2231C12.6918 14.6857 12.5578 14.0425 12.5578 13.2934V13.2807C12.5578 12.5402 12.6938 11.9012 12.9648 11.3637C13.2348 10.8221 13.6178 10.4074 14.1128 10.1196C14.6128 9.83181 15.2068 9.688 15.8968 9.688C16.5868 9.688 17.1788 9.83181 17.6738 10.1196C18.1738 10.4074 18.5588 10.82 18.8298 11.3574C19.1008 11.8948 19.2358 12.536 19.2358 13.2807V13.2934C19.2358 14.0425 19.1008 14.6857 18.8298 15.2231C18.5628 15.7606 18.1798 16.1753 17.6808 16.4673C17.1858 16.755 16.5908 16.8989 15.8968 16.8989ZM15.8968 15.6167C16.2608 15.6167 16.5698 15.5257 16.8238 15.3437C17.0818 15.1575 17.2788 14.893 17.4138 14.5503C17.5498 14.2033 17.6168 13.7864 17.6168 13.2998V13.2871C17.6168 12.7962 17.5498 12.3794 17.4138 12.0366C17.2788 11.6896 17.0818 11.4251 16.8238 11.2431C16.5698 11.0569 16.2608 10.9638 15.8968 10.9638C15.5328 10.9638 15.2218 11.0569 14.9638 11.2431C14.7058 11.4251 14.5088 11.6896 14.3738 12.0366C14.2378 12.3794 14.1708 12.7962 14.1708 13.2871V13.2998C14.1708 13.7864 14.2378 14.2033 14.3738 14.5503C14.5088 14.8973 14.7038 15.1618 14.9578 15.3437C15.2158 15.5257 15.5288 15.6167 15.8968 15.6167ZM20.0778 16.7593V9.8213H21.6578V10.9004H21.7658C21.9138 10.5153 22.1528 10.2169 22.4828 10.0054C22.8178 9.7938 23.2128 9.688 23.6698 9.688C23.9838 9.688 24.2648 9.7387 24.5148 9.8403C24.7688 9.9419 24.9868 10.0858 25.1678 10.272C25.3498 10.4582 25.4898 10.6803 25.5868 10.9385H25.7018C25.8158 10.6888 25.9748 10.4708 26.1778 10.2846C26.3848 10.0942 26.6258 9.9482 26.9008 9.8467C27.1808 9.7409 27.4808 9.688 27.8028 9.688C28.2678 9.688 28.6658 9.78111 28.9958 9.96731C29.3298 10.1492 29.5858 10.4116 29.7638 10.7544C29.9458 11.0971 30.0368 11.5076 30.0368 11.9858V16.7593H28.4568V12.373C28.4568 12.0683 28.4098 11.8165 28.3168 11.6177C28.2278 11.4188 28.0908 11.2685 27.9038 11.167C27.7178 11.0654 27.4828 11.0146 27.1998 11.0146C26.9248 11.0146 26.6858 11.0781 26.4818 11.2051C26.2788 11.3278 26.1208 11.4949 26.0058 11.7065C25.8958 11.9181 25.8408 12.1572 25.8408 12.4238V16.7593H24.2608V12.2588C24.2608 12.0006 24.2098 11.7785 24.1078 11.5923C24.0108 11.4061 23.8668 11.2643 23.6768 11.167C23.4908 11.0654 23.2678 11.0146 23.0098 11.0146C22.7518 11.0146 22.5188 11.0823 22.3118 11.2178C22.1088 11.3489 21.9478 11.5309 21.8298 11.7637C21.7148 11.9922 21.6578 12.2503 21.6578 12.5381V16.7593H20.0778ZM31.1708 16.7593V9.8213H32.7448V16.7593H31.1708ZM31.9638 8.65961C31.7058 8.65961 31.4838 8.5687 31.2978 8.3867C31.1118 8.2047 31.0178 7.9868 31.0178 7.7329C31.0178 7.4705 31.1118 7.25051 31.2978 7.07271C31.4838 6.89081 31.7058 6.7998 31.9638 6.7998C32.2218 6.7998 32.4418 6.89081 32.6238 7.07271C32.8108 7.25051 32.9038 7.4705 32.9038 7.7329C32.9038 7.9868 32.8108 8.2047 32.6238 8.3867C32.4418 8.5687 32.2218 8.65961 31.9638 8.65961ZM33.9478 16.7593V9.8213H35.5288V10.8877H35.6368C35.8018 10.511 36.0518 10.2169 36.3858 10.0054C36.7198 9.7938 37.1368 9.688 37.6358 9.688C38.4108 9.688 39.0028 9.9123 39.4138 10.3608C39.8238 10.8094 40.0298 11.4463 40.0298 12.2715V16.7593H38.4488V12.6396C38.4488 12.098 38.3348 11.6917 38.1058 11.4209C37.8818 11.15 37.5308 11.0146 37.0518 11.0146C36.7388 11.0146 36.4678 11.0845 36.2398 11.2241C36.0108 11.3637 35.8358 11.5605 35.7128 11.8144C35.5898 12.0683 35.5288 12.3688 35.5288 12.7158V16.7593H33.9478ZM44.1338 19.1968C43.5238 19.1968 42.9978 19.1164 42.5528 18.9555C42.1128 18.7947 41.7658 18.5662 41.5118 18.27C41.2578 17.978 41.1038 17.6374 41.0488 17.248L41.0548 17.229H42.6288L42.6418 17.248C42.6928 17.4681 42.8468 17.6479 43.1058 17.7876C43.3678 17.9315 43.7188 18.0034 44.1588 18.0034C44.7008 18.0034 45.1198 17.8828 45.4158 17.6416C45.7168 17.4004 45.8668 17.0576 45.8668 16.6133V15.2803H45.7588C45.6278 15.5299 45.4558 15.7415 45.2448 15.915C45.0368 16.0885 44.7978 16.2197 44.5268 16.3086C44.2608 16.3932 43.9668 16.4355 43.6448 16.4355C43.0608 16.4355 42.5548 16.2959 42.1278 16.0166C41.7008 15.7331 41.3698 15.3416 41.1378 14.8423C40.9088 14.3429 40.7948 13.7653 40.7948 13.1094V13.0967C40.7948 12.428 40.9108 11.8398 41.1438 11.332C41.3768 10.8242 41.7068 10.4264 42.1338 10.1387C42.5658 9.8509 43.0798 9.707 43.6768 9.707C43.9978 9.707 44.2928 9.75781 44.5588 9.85941C44.8298 9.96091 45.0668 10.1048 45.2698 10.291C45.4768 10.4772 45.6468 10.7015 45.7778 10.9638H45.8598V9.8213H47.4408V16.5879C47.4408 17.1211 47.3058 17.5823 47.0348 17.9717C46.7678 18.3652 46.3868 18.6678 45.8918 18.8794C45.3968 19.091 44.8108 19.1968 44.1338 19.1968ZM44.1338 15.1787C44.4978 15.1787 44.8108 15.0919 45.0728 14.9184C45.3358 14.7407 45.5368 14.4974 45.6758 14.1885C45.8198 13.8795 45.8918 13.5198 45.8918 13.1094V13.0967C45.8918 12.6862 45.8198 12.3265 45.6758 12.0176C45.5368 11.7044 45.3358 11.4611 45.0728 11.2876C44.8108 11.1098 44.4978 11.021 44.1338 11.021C43.7658 11.021 43.4528 11.1098 43.1938 11.2876C42.9398 11.4611 42.7458 11.7044 42.6098 12.0176C42.4788 12.3265 42.4138 12.6862 42.4138 13.0967V13.1094C42.4138 13.5156 42.4788 13.8753 42.6098 14.1885C42.7458 14.4974 42.9398 14.7407 43.1938 14.9184C43.4528 15.0919 43.7658 15.1787 44.1338 15.1787ZM53.9738 16.8989C53.3858 16.8989 52.8778 16.8164 52.4498 16.6513C52.0268 16.4821 51.6928 16.2493 51.4478 15.9531C51.2018 15.6526 51.0558 15.3056 51.0098 14.9121V14.8994H52.5768L52.5838 14.9121C52.6678 15.1533 52.8268 15.3501 53.0598 15.5024C53.2928 15.6548 53.6058 15.7309 53.9988 15.7309C54.2618 15.7309 54.4918 15.695 54.6908 15.623C54.8898 15.5469 55.0468 15.4432 55.1608 15.312C55.2748 15.1808 55.3318 15.0285 55.3318 14.855V14.8423C55.3318 14.6391 55.2498 14.4699 55.0848 14.3345C54.9198 14.1948 54.6468 14.0827 54.2658 13.998L53.1418 13.7441C52.7018 13.6468 52.3378 13.5114 52.0508 13.3379C51.7628 13.1644 51.5468 12.9507 51.4028 12.6968C51.2628 12.4429 51.1938 12.1466 51.1938 11.8081V11.8017C51.1938 11.3828 51.3098 11.0146 51.5428 10.6972C51.7798 10.3799 52.1078 10.1323 52.5268 9.95461C52.9458 9.77681 53.4278 9.688 53.9738 9.688C54.5368 9.688 55.0208 9.7726 55.4268 9.9419C55.8338 10.1111 56.1508 10.3439 56.3798 10.6401C56.6078 10.9363 56.7388 11.2728 56.7728 11.6494V11.6621H55.2878L55.2808 11.643C55.2218 11.423 55.0798 11.2368 54.8558 11.0845C54.6358 10.9279 54.3398 10.8496 53.9678 10.8496C53.7348 10.8496 53.5248 10.8856 53.3388 10.9575C53.1568 11.0294 53.0128 11.131 52.9068 11.2622C52.8058 11.3891 52.7548 11.5394 52.7548 11.7129V11.7192C52.7548 11.8546 52.7888 11.9731 52.8568 12.0747C52.9288 12.1762 53.0408 12.2651 53.1928 12.3413C53.3448 12.4175 53.5458 12.4852 53.7958 12.5444L54.9198 12.792C55.6008 12.9443 56.1048 13.1707 56.4298 13.4712C56.7558 13.7716 56.9188 14.1758 56.9188 14.6836V14.6963C56.9188 15.1364 56.7918 15.5215 56.5378 15.8515C56.2838 16.1816 55.9348 16.4398 55.4908 16.626C55.0468 16.8079 54.5408 16.8989 53.9738 16.8989ZM60.7628 16.8989C60.0728 16.8989 59.4788 16.755 58.9798 16.4673C58.4798 16.1753 58.0948 15.7606 57.8238 15.2231C57.5578 14.6857 57.4238 14.0425 57.4238 13.2934V13.2807C57.4238 12.5402 57.5598 11.9012 57.8308 11.3637C58.1008 10.8221 58.4838 10.4074 58.9798 10.1196C59.4788 9.83181 60.0728 9.688 60.7628 9.688C61.4528 9.688 62.0448 9.83181 62.5408 10.1196C63.0398 10.4074 63.4248 10.82 63.6958 11.3574C63.9668 11.8948 64.1018 12.536 64.1018 13.2807V13.2934C64.1018 14.0425 63.9668 14.6857 63.6958 15.2231C63.4288 15.7606 63.0458 16.1753 62.5468 16.4673C62.0518 16.755 61.4568 16.8989 60.7628 16.8989ZM60.7628 15.6167C61.1268 15.6167 61.4358 15.5257 61.6898 15.3437C61.9478 15.1575 62.1448 14.893 62.2798 14.5503C62.4158 14.2033 62.4828 13.7864 62.4828 13.2998V13.2871C62.4828 12.7962 62.4158 12.3794 62.2798 12.0366C62.1448 11.6896 61.9478 11.4251 61.6898 11.2431C61.4358 11.0569 61.1268 10.9638 60.7628 10.9638C60.3988 10.9638 60.0878 11.0569 59.8298 11.2431C59.5718 11.4251 59.3748 11.6896 59.2398 12.0366C59.1038 12.3794 59.0368 12.7962 59.0368 13.2871V13.2998C59.0368 13.7864 59.1038 14.2033 59.2398 14.5503C59.3748 14.8973 59.5698 15.1618 59.8238 15.3437C60.0818 15.5257 60.3948 15.6167 60.7628 15.6167ZM67.9398 16.8989C67.2498 16.8989 66.6558 16.755 66.1558 16.4673C65.6568 16.1753 65.2718 15.7606 65.0008 15.2231C64.7338 14.6857 64.6008 14.0425 64.6008 13.2934V13.2807C64.6008 12.5402 64.7358 11.9012 65.0068 11.3637C65.2778 10.8221 65.6608 10.4074 66.1558 10.1196C66.6558 9.83181 67.2498 9.688 67.9398 9.688C68.6298 9.688 69.2218 9.83181 69.7168 10.1196C70.2168 10.4074 70.6018 10.82 70.8718 11.3574C71.1428 11.8948 71.2788 12.536 71.2788 13.2807V13.2934C71.2788 14.0425 71.1428 14.6857 70.8718 15.2231C70.6058 15.7606 70.2228 16.1753 69.7238 16.4673C69.2278 16.755 68.6338 16.8989 67.9398 16.8989ZM67.9398 15.6167C68.3038 15.6167 68.6128 15.5257 68.8668 15.3437C69.1248 15.1575 69.3218 14.893 69.4568 14.5503C69.5918 14.2033 69.6598 13.7864 69.6598 13.2998V13.2871C69.6598 12.7962 69.5918 12.3794 69.4568 12.0366C69.3218 11.6896 69.1248 11.4251 68.8668 11.2431C68.6128 11.0569 68.3038 10.9638 67.9398 10.9638C67.5758 10.9638 67.2648 11.0569 67.0068 11.2431C66.7488 11.4251 66.5518 11.6896 66.4158 12.0366C66.2808 12.3794 66.2128 12.7962 66.2128 13.2871V13.2998C66.2128 13.7864 66.2808 14.2033 66.4158 14.5503C66.5518 14.8973 66.7468 15.1618 66.9998 15.3437C67.2588 15.5257 67.5718 15.6167 67.9398 15.6167ZM72.1198 16.7593V9.8213H73.7008V10.8877H73.8088C73.9738 10.511 74.2238 10.2169 74.5578 10.0054C74.8918 9.7938 75.3088 9.688 75.8078 9.688C76.5828 9.688 77.1748 9.9123 77.5858 10.3608C77.9958 10.8094 78.2008 11.4463 78.2008 12.2715V16.7593H76.6208V12.6396C76.6208 12.098 76.5068 11.6917 76.2778 11.4209C76.0538 11.15 75.7028 11.0146 75.2238 11.0146C74.9108 11.0146 74.6398 11.0845 74.4118 11.2241C74.1828 11.3637 74.0078 11.5605 73.8848 11.8144C73.7618 12.0683 73.7008 12.3688 73.7008 12.7158V16.7593H72.1198Z" fill="white"/>
</svg>
