<svg width="114" height="58" viewBox="0 0 114 58" fill="none" xmlns="http://www.w3.org/2000/svg"><path d="M88.1543 38.125V16.6782H92.2054V38.125H88.1543Z" fill="#101010"/><path d="M66.0332 38.125L72.5864 16.6782H78.6332L85.1864 38.125H81.0162L75.1779 19.2101H75.9523L70.2034 38.125H66.0332ZM69.9651 33.6569V29.874H81.2843V33.6569H69.9651Z" fill="#101010"/><path d="M59.5481 38.1247V30.5289C59.5481 30.1616 59.5283 29.6949 59.4886 29.1289C59.4488 28.5531 59.3247 27.9772 59.1162 27.4013C58.9077 26.8254 58.5652 26.3438 58.0886 25.9566C57.6219 25.5694 56.9566 25.3758 56.0928 25.3758C55.7453 25.3758 55.373 25.4304 54.9758 25.5396C54.5786 25.6488 54.2063 25.8623 53.8588 26.18C53.5113 26.4878 53.2233 26.9446 52.9949 27.5502C52.7765 28.1559 52.6673 28.9602 52.6673 29.963L50.3439 28.8609C50.3439 27.5899 50.602 26.3985 51.1183 25.2864C51.6347 24.1743 52.4091 23.2758 53.4418 22.5906C54.4843 21.9055 55.7949 21.563 57.3737 21.563C58.6347 21.563 59.6623 21.7765 60.4566 22.2034C61.251 22.6304 61.8666 23.1715 62.3034 23.8268C62.7503 24.4821 63.068 25.1672 63.2566 25.8821C63.4453 26.5871 63.5595 27.2325 63.5992 27.8183C63.6389 28.4041 63.6588 28.8311 63.6588 29.0992V38.1247H59.5481ZM48.5566 38.1247V22.0396H52.1609V27.3715H52.6673V38.1247H48.5566Z" fill="#101010"/><path d="M40.0703 19.8064V16.2319H44.1214V19.8064H40.0703ZM40.0703 38.1256V22.0404H44.1214V38.1256H40.0703Z" fill="#101010"/><path d="M27.8903 38.5712C26.3016 38.5712 24.8669 38.2932 23.586 37.7372C22.3151 37.1712 21.2676 36.3669 20.4435 35.3244C19.6293 34.2719 19.113 33.0208 18.8945 31.5712L23.1243 30.9457C23.4222 32.1769 24.0378 33.1251 24.9711 33.7904C25.9045 34.4556 26.9669 34.7882 28.1584 34.7882C28.8236 34.7882 29.469 34.684 30.0945 34.4755C30.7201 34.2669 31.2314 33.9591 31.6286 33.5521C32.0357 33.145 32.2392 32.6435 32.2392 32.0478C32.2392 31.8294 32.2045 31.6208 32.135 31.4223C32.0754 31.2138 31.9711 31.0201 31.8222 30.8414C31.6733 30.6627 31.4598 30.4939 31.1818 30.335C30.9137 30.1762 30.5711 30.0322 30.1541 29.9031L24.5839 28.2648C24.1669 28.1457 23.6803 27.9769 23.1243 27.7584C22.5782 27.54 22.047 27.2272 21.5307 26.8201C21.0144 26.413 20.5825 25.8769 20.235 25.2116C19.8974 24.5365 19.7286 23.6875 19.7286 22.6648C19.7286 21.2251 20.091 20.0286 20.8158 19.0755C21.5406 18.1223 22.5087 17.4123 23.7201 16.9457C24.9314 16.479 26.2718 16.2506 27.7413 16.2606C29.2208 16.2804 30.5413 16.5336 31.703 17.0201C32.8647 17.5067 33.8378 18.2166 34.6222 19.1499C35.4066 20.0733 35.9725 21.2052 36.3201 22.5457L31.9413 23.2904C31.7825 22.5953 31.4896 22.0095 31.0626 21.5329C30.6357 21.0563 30.1243 20.6939 29.5286 20.4457C28.9428 20.1974 28.3272 20.0634 27.6818 20.0435C27.0463 20.0237 26.4456 20.113 25.8796 20.3116C25.3236 20.5003 24.8669 20.7783 24.5094 21.1457C24.1619 21.513 23.9881 21.9499 23.9881 22.4563C23.9881 22.923 24.1321 23.3052 24.4201 23.6031C24.708 23.8911 25.0704 24.1244 25.5073 24.3031C25.9442 24.4818 26.391 24.6308 26.8477 24.7499L30.5711 25.7627C31.1272 25.9116 31.7428 26.1102 32.4179 26.3584C33.0931 26.5967 33.7385 26.9343 34.3541 27.3712C34.9796 27.7982 35.491 28.3641 35.8881 29.0691C36.2952 29.774 36.4988 30.6677 36.4988 31.7499C36.4988 32.9017 36.2555 33.9095 35.769 34.7733C35.2924 35.6272 34.647 36.3372 33.8328 36.9031C33.0186 37.4591 32.0952 37.8762 31.0626 38.1542C30.0399 38.4322 28.9825 38.5712 27.8903 38.5712Z" fill="#101010"/><path fill-rule="evenodd" clip-rule="evenodd" d="M89.9673 5.71118L96.2462 8.22271L95.456 10.1982L80.9254 4.38598L95.5454 0L96.1567 2.03793L90.7521 3.65933C102.805 5.17949 112.128 15.468 112.128 27.9339C112.128 41.4472 101.173 52.4019 87.6596 52.4019H43.1915V50.2743H87.6596C99.9978 50.2743 110 40.2721 110 27.9339C110 16.3748 101.221 6.86609 89.9673 5.71118ZM24.4681 5.59343C12.1298 5.59343 2.12766 15.5956 2.12766 27.9339C2.12766 40.2721 12.1298 50.2743 24.4681 50.2743H27.2742L19.4508 47.6665L20.1236 45.648L37.1939 51.3381L20.1236 57.0282L19.4508 55.0097L27.2742 52.4019H24.4681C10.9547 52.4019 0 41.4472 0 27.9339C0 14.4205 10.9547 3.46577 24.4681 3.46577H75.9574V5.59343H24.4681Z" fill="#0D50B9"/></svg>