<?xml version="1.0" encoding="utf-8"?><svg viewBox="0 0 35 35" xmlns="http://www.w3.org/2000/svg" xmlns:xlink="http://www.w3.org/1999/xlink"><style>:root>svg{display:none}:root>svg:target{display:block}</style><svg viewBox="0 0 16 16" id="checked" xmlns="http://www.w3.org/2000/svg"><path d="M6.166 12.318l-3.5-3.5 1-1 2.501 2.498v.002l5.999-6 1 1-6 6-1 1z"/></svg><svg viewBox="0 0 30 30" id="close" xmlns="http://www.w3.org/2000/svg"><path fill-rule="evenodd" clip-rule="evenodd" d="M6.952 6.951a1.2 1.2 0 011.697 0L15 13.303l6.352-6.352a1.2 1.2 0 111.697 1.698L16.697 15l6.352 6.352a1.2 1.2 0 11-1.697 1.697L15 16.697 8.65 23.05a1.2 1.2 0 11-1.697-1.697L13.303 15 6.952 8.649a1.2 1.2 0 010-1.698z"/></svg><svg fill="none" viewBox="0 0 24 24" id="google-color" xmlns="http://www.w3.org/2000/svg"><g clip-path="url(#cclip0_137_285)"><path d="M23.766 12.276c0-.816-.066-1.636-.207-2.438H12.24v4.62h6.482a5.555 5.555 0 01-2.399 3.647v2.999h3.867c2.271-2.09 3.576-5.177 3.576-8.828z" fill="#4285F4"/><path d="M12.24 24c3.236 0 5.965-1.062 7.954-2.896l-3.867-2.998c-1.076.731-2.465 1.146-4.084 1.146-3.13 0-5.785-2.112-6.737-4.952h-3.99v3.091a12.002 12.002 0 0010.723 6.61z" fill="#34A853"/><path d="M5.503 14.3a7.188 7.188 0 010-4.594V6.615H1.517a12.01 12.01 0 000 10.776l3.986-3.09z" fill="#FBBC04"/><path d="M12.24 4.75a6.521 6.521 0 014.603 1.799l3.425-3.426A11.533 11.533 0 0012.24 0 11.998 11.998 0 001.516 6.615l3.986 3.09C6.45 6.863 9.108 4.75 12.239 4.75z" fill="#EA4335"/></g><defs><clipPath id="cclip0_137_285"><path fill="#fff" d="M0 0h24v24H0z"/></clipPath></defs></svg><svg viewBox="0 0 35 35" id="instagram" xmlns="http://www.w3.org/2000/svg"><path d="M9.722 0C4.354 0 0 4.354 0 9.722v15.556C0 30.646 4.354 35 9.722 35h15.556C30.646 35 35 30.646 35 25.278V9.722C35 4.354 30.646 0 25.278 0H9.722zm19.445 3.889a1.945 1.945 0 11-.002 3.89 1.945 1.945 0 01.002-3.89zM17.5 7.778c5.369 0 9.722 4.353 9.722 9.722s-4.353 9.722-9.722 9.722S7.778 22.87 7.778 17.5 12.13 7.778 17.5 7.778zm0 3.889a5.833 5.833 0 100 11.666 5.833 5.833 0 000-11.666z"/></svg><svg viewBox="0 0 28 28" id="menu-close" xmlns="http://www.w3.org/2000/svg"><path d="M1.435 1.436a2.03 2.03 0 012.872 0l22.256 22.256a2.03 2.03 0 11-2.872 2.872L1.436 4.308a2.03 2.03 0 010-2.872z"/><path d="M1.436 26.564a2.03 2.03 0 010-2.872L23.692 1.436a2.03 2.03 0 112.872 2.872L4.308 26.564a2.03 2.03 0 01-2.872 0z"/></svg><svg viewBox="0 0 35 35" id="menu-open" xmlns="http://www.w3.org/2000/svg"><path d="M0 10a2 2 0 012-2h31a2 2 0 110 4H2a2 2 0 01-2-2zM0 18a2 2 0 012-2h31a2 2 0 110 4H2a2 2 0 01-2-2zM0 26a2 2 0 012-2h31a2 2 0 110 4H2a2 2 0 01-2-2z"/></svg><svg viewBox="0 0 24 24" id="plus" xmlns="http://www.w3.org/2000/svg"><path fill-rule="evenodd" clip-rule="evenodd" d="M24 12a1 1 0 01-1 1H1a1 1 0 110-2h22a1 1 0 011 1z"/><path fill-rule="evenodd" clip-rule="evenodd" d="M12 24a1 1 0 01-1-1V1a1 1 0 112 0v22a1 1 0 01-1 1z"/></svg><svg viewBox="0 0 35 35" id="telegram" xmlns="http://www.w3.org/2000/svg"><path d="M2.358 15.165c10.77-4.98 24.708-11.052 26.631-11.893 5.047-2.2 6.595-1.778 5.823 3.094-.554 3.5-2.154 15.093-3.429 22.308-.757 4.278-2.454 4.785-5.124 2.934-1.283-.89-7.763-5.394-9.169-6.452-1.284-.963-3.054-2.123-.834-4.406.79-.814 5.97-6.012 10.005-10.058.529-.531-.135-1.404-.745-.978-5.44 3.791-12.98 9.053-13.94 9.739-1.45 1.035-2.843 1.51-5.343.755-1.888-.57-3.733-1.25-4.451-1.51-2.766-.998-2.11-2.29.576-3.533z"/></svg><svg viewBox="0 0 35 35" id="twitter" xmlns="http://www.w3.org/2000/svg"><path d="M35 4c-1.365.806-4.104 1.904-5.714 2.22-.047.012-.085.028-.131.04A7.87 7.87 0 0023.625 4c-4.349 0-7.875 3.506-7.875 7.83 0 .228-.02.647 0 .87-5.868 0-10.334-3.056-13.536-6.96-.349.87-.5 2.244-.5 3.536 0 2.437 1.916 4.831 4.9 6.316a7.209 7.209 0 01-1.786.241c-1.017 0-2.093-.266-3.078-1.073v.089c0 3.406 3.636 5.726 6.87 6.371-.656.385-1.979.423-2.624.423-.456 0-2.066-.207-2.496-.287.9 2.793 4.144 4.362 7.236 4.418-2.418 1.886-4.097 2.585-9.049 2.585H0c3.129 1.994 7.114 3.482 11.107 3.482C24.11 31.84 31.5 21.988 31.5 12.7c0-.15-.003-.463-.009-.778 0-.031.009-.06.009-.092 0-.047-.014-.092-.014-.14-.005-.236-.01-.457-.016-.572A14.334 14.334 0 0035 7.48c-1.269.56-2.63.936-4.06 1.106C32.4 7.716 34.473 5.643 35 4z"/></svg><svg viewBox="0 0 35 35" id="vk" xmlns="http://www.w3.org/2000/svg"><path d="M17.5 0C7.835 0 0 7.835 0 17.5S7.835 35 17.5 35 35 27.165 35 17.5 27.165 0 17.5 0zm9.651 24.5h-2.29c-.869 0-1.143-.86-2.657-2.625-1.313-1.531-1.992-1.75-2.326-1.75-.469 0-.628.116-.628.817v2.6c0 .583-.15.958-1.619.958-2.424 0-5.162-1.642-7.24-4.485C7.526 16.093 7 12.682 7 12.052c0-.35.11-.677.779-.677h2.312c.579 0 .801.257 1.023.934 1.027 3.441 2.559 6.066 3.337 6.066.29 0 .424-.14.424-.91v-3.171c-.09-1.635-.875-1.774-.875-2.359 0-.282.185-.56.543-.56h4.067c.49 0 .64.28.64.887V16.8c0 .513.392.7.546.7.289 0 .56.014 1.094-.548 1.645-1.939 3.073-4.877 3.073-4.877.157-.35.423-.7 1.002-.7h2.291c.513 0 .73.23.744.548.005.11-.014.232-.054.364-.289 1.4-3.25 5.558-3.227 5.558-.126.215-.21.369-.219.532-.009.154.054.315.219.542.243.35.775.994 1.312 1.645.972 1.174 1.75 2.407 1.92 2.91.037.137.052.261.049.372-.012.43-.319.654-.849.654z"/></svg><svg fill="none" viewBox="0 0 24 24" id="vk-color" xmlns="http://www.w3.org/2000/svg"><g clip-path="url(#kclip0_137_283)"><path fill-rule="evenodd" clip-rule="evenodd" d="M1.689 1.689C0 3.377 0 6.086 0 11.52v.96c0 5.434 0 8.143 1.689 9.831C3.377 24 6.086 24 11.52 24h.96c5.434 0 8.143 0 9.831-1.689C24 20.623 24 17.914 24 12.48v-.96c0-5.434 0-8.143-1.689-9.831C20.623 0 17.914 0 12.48 0h-.96C6.086 0 3.377 0 1.689 1.689zM3.986 7.5c.137 6.24 3.42 10.003 8.828 10.003h.317v-3.574c1.972.197 3.446 1.671 4.046 3.574h2.846a7.904 7.904 0 00-4.02-5.014 7.621 7.621 0 003.42-4.989h-2.589c-.548 1.989-2.16 3.789-3.703 3.96V7.5H10.5v6.926c-1.594-.395-3.686-2.34-3.771-6.926H3.986z" fill="#000"/></g><defs><clipPath id="kclip0_137_283"><path fill="#fff" d="M0 0h24v24H0z"/></clipPath></defs></svg><svg fill="none" viewBox="0 0 24 24" id="yandex-color" xmlns="http://www.w3.org/2000/svg"><g clip-path="url(#lclip0_137_280)"><path d="M12 24c6.628 0 12-5.372 12-12S18.628 0 12 0 0 5.372 0 12s5.372 12 12 12z" fill="#FC3F1D"/><path d="M15.83 18.72H13.45V6.94h-1.06c-1.94 0-2.96.98-2.96 2.43 0 1.65.71 2.41 2.16 3.39l1.2.8-3.45 5.16h-2.57l3.1-4.606c-1.783-1.268-2.78-2.518-2.78-4.603 0-2.631 1.82-4.41 5.29-4.41h3.45l.002 13.62z" fill="#fff"/></g><defs><clipPath id="lclip0_137_280"><path fill="#fff" d="M0 0h24v24H0z"/></clipPath></defs></svg></svg>