<svg width="35" height="35" viewBox="0 0 35 35" xmlns="http://www.w3.org/2000/svg"><path d="M2.35839 15.1651C13.1284 10.1849 27.0657 4.11288 28.9895 3.27248C34.0361 1.07284 35.5845 1.49439 34.8124 6.36567C34.258 9.86691 32.6581 21.4587 31.383 28.6738C30.6263 32.9524 28.9287 33.4595 26.2593 31.6084C24.9756 30.7176 18.4963 26.2138 17.0901 25.1563C15.8064 24.1925 14.0359 23.0332 16.2562 20.7498C17.0463 19.9364 22.2257 14.7382 26.261 10.692C26.7898 10.1606 26.1256 9.28772 25.5155 9.71378C20.0765 13.5051 12.5354 18.7673 11.5756 19.4527C10.1257 20.4877 8.73317 20.9624 6.23348 20.2076C4.34478 19.6374 2.49979 18.9573 1.78167 18.6979C-0.983677 17.6999 -0.32726 16.4073 2.35839 15.1651Z"/></svg>