<svg width="35" height="35" viewBox="0 0 35 35" xmlns="http://www.w3.org/2000/svg"><path d="M35 4C33.635 4.8056 30.8963 5.9035 29.2863 6.22017C29.239 6.23235 29.2005 6.24801 29.155 6.26019C27.7322 4.86475 25.7828 4 23.625 4C19.2763 4 15.75 7.50599 15.75 11.8298C15.75 12.0577 15.7308 12.477 15.75 12.6997C9.88225 12.6997 5.41625 9.64439 2.21375 5.73995C1.8655 6.60992 1.71325 7.98448 1.71325 9.27552C1.71325 11.7132 3.6295 14.1074 6.61325 15.5915C6.06375 15.7325 5.45825 15.8334 4.82825 15.8334C3.8115 15.8334 2.73525 15.5672 1.75 14.7598C1.75 14.7894 1.75 14.8173 1.75 14.8486C1.75 18.2554 5.3865 20.5747 8.6205 21.2203C7.96425 21.6048 6.64125 21.6431 5.9955 21.6431C5.5405 21.6431 3.9305 21.436 3.5 21.356C4.3995 24.1486 7.644 25.718 10.7362 25.7737C8.31775 27.6598 6.6395 28.3593 1.687 28.3593H0C3.129 30.3533 7.11375 31.8409 11.1073 31.8409C24.1097 31.8409 31.5 21.9876 31.5 12.6997C31.5 12.5501 31.4965 12.2369 31.4913 11.922C31.4913 11.8907 31.5 11.8611 31.5 11.8298C31.5 11.7828 31.486 11.7375 31.486 11.6906C31.4808 11.4539 31.4755 11.233 31.4702 11.1181C32.8527 10.1264 34.0515 8.88925 35 7.4799C33.7312 8.04016 32.3698 8.41599 30.94 8.5865C32.3995 7.71653 34.4733 5.64251 35 4Z"/></svg>