<svg width="35" height="35" viewBox="0 0 35 35" xmlns="http://www.w3.org/2000/svg"><path d="M9.72222 0C4.35361 0 0 4.35361 0 9.72222V25.2778C0 30.6464 4.35361 35 9.72222 35H25.2778C30.6464 35 35 30.6464 35 25.2778V9.72222C35 4.35361 30.6464 0 25.2778 0H9.72222ZM29.1667 3.88889C30.24 3.88889 31.1111 4.76 31.1111 5.83333C31.1111 6.90667 30.24 7.77778 29.1667 7.77778C28.0933 7.77778 27.2222 6.90667 27.2222 5.83333C27.2222 4.76 28.0933 3.88889 29.1667 3.88889ZM17.5 7.77778C22.8686 7.77778 27.2222 12.1314 27.2222 17.5C27.2222 22.8686 22.8686 27.2222 17.5 27.2222C12.1314 27.2222 7.77778 22.8686 7.77778 17.5C7.77778 12.1314 12.1314 7.77778 17.5 7.77778ZM17.5 11.6667C14.2783 11.6667 11.6667 14.2783 11.6667 17.5C11.6667 20.7217 14.2783 23.3333 17.5 23.3333C20.7217 23.3333 23.3333 20.7217 23.3333 17.5C23.3333 14.2783 20.7217 11.6667 17.5 11.6667Z"/></svg>