<svg width="35" height="35" viewBox="0 0 35 35" xmlns="http://www.w3.org/2000/svg"><path d="M0 10C0 8.89543 0.895431 8 2 8H33C34.1046 8 35 8.89543 35 10V10C35 11.1046 34.1046 12 33 12H2C0.89543 12 0 11.1046 0 10V10Z"/><path d="M0 18C0 16.8954 0.895431 16 2 16H33C34.1046 16 35 16.8954 35 18V18C35 19.1046 34.1046 20 33 20H2C0.89543 20 0 19.1046 0 18V18Z"/><path d="M0 26C0 24.8954 0.895431 24 2 24H33C34.1046 24 35 24.8954 35 26V26C35 27.1046 34.1046 28 33 28H2C0.89543 28 0 27.1046 0 26V26Z"/></svg>