<svg width="28" height="28" viewBox="0 0 28 28" xmlns="http://www.w3.org/2000/svg"><path d="M1.4352 1.4359C2.22822 0.642872 3.51397 0.642872 4.30699 1.4359L26.5634 23.6923C27.3564 24.4853 27.3564 25.771 26.5633 26.5641V26.5641C25.7703 27.3571 24.4846 27.3571 23.6916 26.5641L1.4352 4.30768C0.642175 3.51466 0.642177 2.22892 1.4352 1.4359V1.4359Z"/><path d="M1.43589 26.5643C0.642872 25.7713 0.642872 24.4855 1.43589 23.6925L23.6923 1.43614C24.4853 0.643121 25.771 0.643123 26.564 1.43615V1.43615C27.3571 2.22917 27.3571 3.51491 26.564 4.30794L4.30768 26.5643C3.51466 27.3573 2.22892 27.3573 1.43589 26.5643V26.5643Z"/></svg>