<svg width="35" height="35" viewBox="0 0 35 35" xmlns="http://www.w3.org/2000/svg"><path d="M17.5 0C7.83475 0 0 7.83475 0 17.5C0 27.1652 7.83475 35 17.5 35C27.1652 35 35 27.1652 35 17.5C35 7.83475 27.1652 0 17.5 0ZM27.1512 24.5H24.8605C23.9925 24.5 23.7177 23.6407 22.204 21.875C20.8915 20.3438 20.2125 20.125 19.8783 20.125C19.4093 20.125 19.25 20.2405 19.25 20.9422V23.5427C19.25 24.1255 19.0995 24.5 17.6313 24.5C15.2075 24.5 12.4688 22.8585 10.3915 20.0148C7.525 16.093 7 12.6822 7 12.0522C7 11.7022 7.11025 11.375 7.77875 11.375H10.0905C10.6697 11.375 10.892 11.6323 11.1143 12.3095C12.1415 15.75 13.6728 18.375 14.4515 18.375C14.7403 18.375 14.875 18.235 14.875 17.465V14.294C14.7858 12.6595 14 12.5195 14 11.935C14 11.6532 14.1855 11.375 14.5425 11.375H18.6095C19.0995 11.375 19.25 11.655 19.25 12.2622V16.8C19.25 17.3128 19.642 17.5 19.796 17.5C20.0848 17.5 20.356 17.514 20.8898 16.9523C22.5348 15.0133 23.9627 12.075 23.9627 12.075C24.1202 11.725 24.3863 11.375 24.9655 11.375H27.2563C27.769 11.375 27.986 11.6042 28 11.9227C28.0052 12.033 27.986 12.1555 27.9457 12.2867C27.657 13.6867 24.696 17.8447 24.7188 17.8447C24.5928 18.06 24.5088 18.214 24.5 18.3768C24.4912 18.5308 24.5543 18.6918 24.7188 18.9193C24.962 19.2693 25.494 19.9133 26.0312 20.5643C27.0025 21.7385 27.7813 22.9705 27.951 23.4745C27.9878 23.611 28.0035 23.7353 28 23.8455C27.9877 24.276 27.6815 24.5 27.1512 24.5Z"/></svg>